<svg id="BG" xmlns="http://www.w3.org/2000/svg" viewBox="0 0 1214 941"><defs><style>.cls-1{fill:#204056;}.cls-2{fill:#4e768d;}.cls-3{fill:#fff;}.cls-4{fill:#f65a5b;}.cls-5{fill:#39d1b4;}.cls-6{fill:#52b1db;}.cls-7{fill:#97d0e9;}.cls-8{fill:#dceff8;}</style></defs><title>jquery-diagrams</title><rect class="cls-1" x="0.36" width="1214" height="941"/><polygon class="cls-2" points="819.2 368.5 818.2 368.5 818.2 349 397.27 349 397.27 368.5 396.27 368.5 396.27 348 819.2 348 819.2 368.5"/><rect class="cls-3" x="606.46" y="308.21" width="1" height="32.24"/><polygon class="cls-3" points="602.87 337.14 603.6 336.46 606.96 340.07 610.31 336.46 611.04 337.14 606.96 341.54 602.87 337.14"/><rect class="cls-2" x="606.46" y="348.21" width="1" height="20.67"/><polygon class="cls-2" points="819.2 528.83 818.2 528.83 818.2 509.33 397.27 509.33 397.27 528.83 396.27 528.83 396.27 508.33 819.2 508.33 819.2 528.83"/><rect class="cls-3" x="606.46" y="468.55" width="1" height="32.25"/><polygon class="cls-3" points="602.87 497.48 603.6 496.79 606.96 500.41 610.31 496.79 611.04 497.48 606.96 501.87 602.87 497.48"/><rect class="cls-2" x="606.46" y="508.54" width="1" height="20.67"/><polygon class="cls-4" points="557.46 494.71 395.79 494.71 395.79 475.3 396.79 475.3 396.79 493.71 556.46 493.71 556.46 469.88 557.46 469.88 557.46 494.71"/><polygon class="cls-4" points="400.38 478.61 399.65 479.3 396.29 475.68 392.93 479.3 392.2 478.61 396.29 474.21 400.38 478.61"/><polygon class="cls-5" points="817.44 494.71 655.77 494.71 655.77 469.88 656.77 469.88 656.77 493.71 816.44 493.71 816.44 475.3 817.44 475.3 817.44 494.71"/><polygon class="cls-5" points="821.03 478.61 820.29 479.3 816.94 475.68 813.58 479.3 812.85 478.61 816.94 474.21 821.03 478.61"/><polygon class="cls-2" points="917.77 669.09 297.05 669.09 297.05 648.59 298.05 648.59 298.05 668.09 916.77 668.09 916.77 648.59 917.77 648.59 917.77 669.09"/><rect class="cls-2" x="606.91" y="668.59" width="1" height="20"/><rect class="cls-6" x="296.93" y="207.79" width="620" height="100" rx="8" ry="8"/><path class="cls-1" d="M526,247.12a4.25,4.25,0,0,1,0-.56,1,1,0,0,1,.81-0.81,4.24,4.24,0,0,1,.56,0h6.63a7.88,7.88,0,0,1,2.7.45,6.09,6.09,0,0,1,2.11,1.27,5.7,5.7,0,0,1,1.38,2,7.17,7.17,0,0,1,0,5.21,5.77,5.77,0,0,1-1.37,2,6.12,6.12,0,0,1-2.11,1.28,7.77,7.77,0,0,1-2.7.45h-5.71v7.4a4.17,4.17,0,0,1,0,.67,1.16,1.16,0,0,1-.17.42,1,1,0,0,1-.38.35,1.25,1.25,0,0,1-1.13,0,1,1,0,0,1-.38-0.35,1.13,1.13,0,0,1-.17-0.42,4.14,4.14,0,0,1,0-.67V247.12Zm2.33,0.65v8.55h5.53a5.89,5.89,0,0,0,1.84-.27,3.94,3.94,0,0,0,1.43-.81,3.58,3.58,0,0,0,.92-1.34,5.51,5.51,0,0,0,0-3.73,3.59,3.59,0,0,0-.92-1.34,3.85,3.85,0,0,0-1.43-.8,6.07,6.07,0,0,0-1.84-.26h-5.53Z"/><path class="cls-1" d="M543.2,263a4.38,4.38,0,0,1,.35-1.77,3.78,3.78,0,0,1,1-1.36,4.5,4.5,0,0,1,1.62-.87,7.2,7.2,0,0,1,2.17-.3h4.5v-1.21a3.51,3.51,0,0,0-.85-2.56,3.81,3.81,0,0,0-2.8-.87,6.22,6.22,0,0,0-1,.08,3.85,3.85,0,0,0-.85.24,4,4,0,0,0-.76.42,8.81,8.81,0,0,0-.73.58,1.53,1.53,0,0,1-.5.31,1.33,1.33,0,0,1-.42.08,1,1,0,0,1-.36-0.07,0.75,0.75,0,0,1-.3-0.2,1.68,1.68,0,0,1-.2-0.3,0.89,0.89,0,0,1-.08-0.39,1.21,1.21,0,0,1,.38-0.82,5.72,5.72,0,0,1,1-.85,5.92,5.92,0,0,1,1.72-.74,8.75,8.75,0,0,1,2.1-.23,6.54,6.54,0,0,1,4.37,1.26,4.62,4.62,0,0,1,1.46,3.71v8.71a3.62,3.62,0,0,1,0,.6,1.32,1.32,0,0,1-.16.42,0.87,0.87,0,0,1-.36.34,1.21,1.21,0,0,1-1.09,0,0.87,0.87,0,0,1-.36-0.34,1.27,1.27,0,0,1-.16-0.42,3.49,3.49,0,0,1,0-.6v0a6.44,6.44,0,0,1-.91.74,4.4,4.4,0,0,1-1,.48,5.54,5.54,0,0,1-1.09.26,9.38,9.38,0,0,1-1.31.08,8.33,8.33,0,0,1-2.54-.33,4.11,4.11,0,0,1-1.69-1,4.06,4.06,0,0,1-.83-1.34A4.67,4.67,0,0,1,543.2,263Zm2.16,0q0,2.55,3.43,2.55c0.31,0,.61,0,0.91,0a4.73,4.73,0,0,0,.85-0.14,3.45,3.45,0,0,0,.79-0.31,3.35,3.35,0,0,0,.73-0.54,2.25,2.25,0,0,0,.58-1,5.57,5.57,0,0,0,.19-1.58v-1.58h-4.26a3.69,3.69,0,0,0-2.41.67A2.4,2.4,0,0,0,545.36,263Z"/><path class="cls-1" d="M562.55,254.14a4.08,4.08,0,0,1,.75-0.82,4.68,4.68,0,0,1,1-.62,5.38,5.38,0,0,1,2.33-.53,5.71,5.71,0,0,1,1.44.17,4.5,4.5,0,0,1,1.24.54,2.57,2.57,0,0,1,.59.48,0.92,0.92,0,0,1,.24.63,1.08,1.08,0,0,1-.09.42,1.1,1.1,0,0,1-.23.35,1,1,0,0,1-.76.32,1.09,1.09,0,0,1-.42-0.09,5.54,5.54,0,0,1-.63-0.33,3.77,3.77,0,0,0-.88-0.39,3.42,3.42,0,0,0-1-.14,3.57,3.57,0,0,0-1.49.3,3.33,3.33,0,0,0-1.13.83,3.64,3.64,0,0,0-.72,1.26,5,5,0,0,0-.25,1.61v7.72a3.6,3.6,0,0,1,0,.6,1.3,1.3,0,0,1-.16.42,0.87,0.87,0,0,1-.36.34,1.21,1.21,0,0,1-1.09,0,0.87,0.87,0,0,1-.36-0.34,1.32,1.32,0,0,1-.16-0.42,3.51,3.51,0,0,1,0-.6V253.7a3.52,3.52,0,0,1,0-.6,1.33,1.33,0,0,1,.16-0.42,0.88,0.88,0,0,1,.36-0.34,1.22,1.22,0,0,1,1.09,0,0.88,0.88,0,0,1,.36.34,1.3,1.3,0,0,1,.16.42,3.6,3.6,0,0,1,0,.6v0.44Z"/><path class="cls-1" d="M573.61,260.35a5.77,5.77,0,0,0,1.13,3.8A4,4,0,0,0,578,265.5a5.79,5.79,0,0,0,1.68-.25,4.19,4.19,0,0,0,1.5-.82,3.36,3.36,0,0,1,.56-0.42,1,1,0,0,1,.47-0.11,0.83,0.83,0,0,1,.35.08,1,1,0,0,1,.29.21,1.27,1.27,0,0,1,.21.31,0.83,0.83,0,0,1,.08.36,0.9,0.9,0,0,1-.16.5,2.51,2.51,0,0,1-.39.46,4.9,4.9,0,0,1-.5.41l-0.49.32a6.25,6.25,0,0,1-1.62.63,8.59,8.59,0,0,1-2.08.23,7.56,7.56,0,0,1-2.68-.45,5.28,5.28,0,0,1-2.05-1.38,6.26,6.26,0,0,1-1.31-2.36,12.72,12.72,0,0,1,0-6.68,6.77,6.77,0,0,1,1.23-2.39,5.19,5.19,0,0,1,1.93-1.46,6.22,6.22,0,0,1,2.54-.5,6.31,6.31,0,0,1,2.54.49,5.3,5.3,0,0,1,1.91,1.4,6.35,6.35,0,0,1,1.21,2.17,9.2,9.2,0,0,1,.44,2.83,3.19,3.19,0,0,1,0,.51,0.88,0.88,0,0,1-.26.49,0.81,0.81,0,0,1-.46.25,3.33,3.33,0,0,1-.51,0h-8.78Zm7.88-1.66c0-.26,0-0.5,0-0.71s0-.41-0.08-0.59a5.27,5.27,0,0,0-.14-0.54q-0.08-.27-0.2-0.57a3.46,3.46,0,0,0-1.34-1.62,4.12,4.12,0,0,0-4.28,0,3.42,3.42,0,0,0-1.33,1.62c-0.08.2-.15,0.39-0.2,0.57a5,5,0,0,0-.14.54q-0.05.27-.08,0.59c0,0.21,0,.45,0,0.71h7.88Z"/><path class="cls-1" d="M600,265.86a3.61,3.61,0,0,1,0,.61,1.17,1.17,0,0,1-.16.4,0.87,0.87,0,0,1-.36.34,1.21,1.21,0,0,1-1.09,0,0.86,0.86,0,0,1-.36-0.34,1.17,1.17,0,0,1-.16-0.4,3.61,3.61,0,0,1,0-.61V258.1a4.08,4.08,0,0,0-1-3,3.58,3.58,0,0,0-2.67-1,4.47,4.47,0,0,0-1.53.25,3.06,3.06,0,0,0-1.17.75,3.39,3.39,0,0,0-.75,1.24,5.12,5.12,0,0,0-.26,1.72v7.76a3.59,3.59,0,0,1,0,.61,1.16,1.16,0,0,1-.16.4,0.87,0.87,0,0,1-.36.34,1.21,1.21,0,0,1-1.09,0,0.86,0.86,0,0,1-.36-0.34,1.17,1.17,0,0,1-.16-0.4,3.63,3.63,0,0,1,0-.61V253.72a3.51,3.51,0,0,1,0-.6,1.34,1.34,0,0,1,.16-0.42,0.86,0.86,0,0,1,.36-0.34,1.21,1.21,0,0,1,1.09,0,0.87,0.87,0,0,1,.36.34,1.32,1.32,0,0,1,.16.42,3.47,3.47,0,0,1,0,.6V254a5.31,5.31,0,0,1,1.87-1.36,5.77,5.77,0,0,1,2.3-.45,6.33,6.33,0,0,1,2.19.36,4.7,4.7,0,0,1,2.83,2.85,7,7,0,0,1,.37,2.34v8.14Z"/><path class="cls-1" d="M607.95,263.16a2.4,2.4,0,0,0,.48,1.59,1.83,1.83,0,0,0,1.49.57,3.2,3.2,0,0,1,.6,0,1.17,1.17,0,0,1,.38.14,0.93,0.93,0,0,1,0,1.54,1.17,1.17,0,0,1-.38.14,3.21,3.21,0,0,1-.6,0h-0.39a4.08,4.08,0,0,1-1.65-.31,3.31,3.31,0,0,1-1.18-.85,3.55,3.55,0,0,1-.71-1.27,5,5,0,0,1-.23-1.56V254h-1a3,3,0,0,1-.48,0,0.8,0.8,0,0,1-.32-0.12,0.85,0.85,0,0,1,0-1.39,0.82,0.82,0,0,1,.32-0.12,3,3,0,0,1,.48,0h1v-3.19a3.49,3.49,0,0,1,0-.6,1.3,1.3,0,0,1,.16-0.42,0.88,0.88,0,0,1,.36-0.34,1.22,1.22,0,0,1,1.09,0,0.88,0.88,0,0,1,.36.34,1.34,1.34,0,0,1,.16.42,3.51,3.51,0,0,1,0,.6v3.19h2.19a3,3,0,0,1,.48,0,0.82,0.82,0,0,1,.32.12,0.85,0.85,0,0,1,0,1.39,0.81,0.81,0,0,1-.32.12,3,3,0,0,1-.48,0h-2.19v9.11Z"/><path class="cls-1" d="M639.26,265.81a1.59,1.59,0,0,1-.36,1.16,1.2,1.2,0,0,1-.88.36,1.1,1.1,0,0,1-.72-0.24,3.32,3.32,0,0,1-.6-0.68l-11-16.31v15.66a4.29,4.29,0,0,1,0,.67,1.18,1.18,0,0,1-.17.42,1,1,0,0,1-.39.35,1.25,1.25,0,0,1-1.13,0,1,1,0,0,1-.39-0.35,1.14,1.14,0,0,1-.17-0.42,4.14,4.14,0,0,1,0-.67V247.12a1.59,1.59,0,0,1,.36-1.16,1.13,1.13,0,0,1,.88-0.36,1.09,1.09,0,0,1,.72.24,3.29,3.29,0,0,1,.6.68l11,16.31V247.16a4.18,4.18,0,0,1,0-.67,1.17,1.17,0,0,1,.17-0.42,1,1,0,0,1,.38-0.35,1.25,1.25,0,0,1,1.13,0,1,1,0,0,1,.38.35,1.15,1.15,0,0,1,.17.42,4.15,4.15,0,0,1,0,.67v18.65Z"/><path class="cls-1" d="M650.4,252.18a6.1,6.1,0,0,1,2.44.46,5.87,5.87,0,0,1,1.83,1.23,5.64,5.64,0,0,1,.94,1.27,6.55,6.55,0,0,1,.56,1.43,9.17,9.17,0,0,1,.26,1.56q0.07,0.81.07,1.67t-0.07,1.67a9.19,9.19,0,0,1-.26,1.56,6.54,6.54,0,0,1-.56,1.43,5.61,5.61,0,0,1-.94,1.27,5.85,5.85,0,0,1-1.83,1.23,6.69,6.69,0,0,1-4.88,0,5.86,5.86,0,0,1-1.83-1.23,5.59,5.59,0,0,1-.94-1.27,6.59,6.59,0,0,1-.56-1.43,9.09,9.09,0,0,1-.26-1.56q-0.07-.81-0.07-1.67t0.07-1.67a9.08,9.08,0,0,1,.26-1.56,6.6,6.6,0,0,1,.56-1.43,5.61,5.61,0,0,1,.94-1.27,5.88,5.88,0,0,1,1.83-1.23A6.11,6.11,0,0,1,650.4,252.18Zm0,13.26a3.65,3.65,0,0,0,2.69-1.07,3,3,0,0,0,.63-0.91,5.65,5.65,0,0,0,.36-1.12,8.81,8.81,0,0,0,.17-1.25q0-.65,0-1.3t0-1.29a8.81,8.81,0,0,0-.17-1.24,5.67,5.67,0,0,0-.36-1.12,3,3,0,0,0-.63-0.91,3.7,3.7,0,0,0-1.2-.82,4.21,4.21,0,0,0-3,0,3.67,3.67,0,0,0-1.2.82,3,3,0,0,0-.63.91,5.61,5.61,0,0,0-.36,1.12,9,9,0,0,0-.17,1.24q0,0.64,0,1.29t0,1.3a9,9,0,0,0,.17,1.25,5.59,5.59,0,0,0,.36,1.12,3,3,0,0,0,.63.91A3.64,3.64,0,0,0,650.4,265.44Z"/><path class="cls-1" d="M660.37,259.79q0-.89.08-1.78a10.76,10.76,0,0,1,.28-1.71,7.55,7.55,0,0,1,.56-1.53,4.86,4.86,0,0,1,.93-1.29,4.25,4.25,0,0,1,1.53-.94,5.9,5.9,0,0,1,2.1-.36,8,8,0,0,1,1.16.08,4.74,4.74,0,0,1,1.08.29,4.38,4.38,0,0,1,1,.58,5.85,5.85,0,0,1,1,.94v-7a3.51,3.51,0,0,1,0-.6,1.34,1.34,0,0,1,.16-0.42,0.88,0.88,0,0,1,.36-0.34,1.13,1.13,0,0,1,.54-0.13,1.15,1.15,0,0,1,.54.13,0.87,0.87,0,0,1,.36.34,1.32,1.32,0,0,1,.16.42,3.6,3.6,0,0,1,0,.6v18.79a3.6,3.6,0,0,1,0,.6,1.32,1.32,0,0,1-.16.42,0.87,0.87,0,0,1-.36.34,1.15,1.15,0,0,1-.54.13,1.13,1.13,0,0,1-.54-0.13,0.88,0.88,0,0,1-.36-0.34,1.34,1.34,0,0,1-.16-0.42,3.51,3.51,0,0,1,0-.6v-0.42a6,6,0,0,1-.94,1,4.43,4.43,0,0,1-1,.6,4.27,4.27,0,0,1-1.08.31,8.1,8.1,0,0,1-1.18.08,5.9,5.9,0,0,1-2.1-.36,4.25,4.25,0,0,1-1.53-.94,4.6,4.6,0,0,1-.93-1.28,7.74,7.74,0,0,1-.56-1.54,10.73,10.73,0,0,1-.28-1.71Q660.37,260.68,660.37,259.79Zm2.21,0a17,17,0,0,0,.13,2.11,5.55,5.55,0,0,0,.52,1.81,3.16,3.16,0,0,0,1.13,1.26,4.26,4.26,0,0,0,3.91,0,3.17,3.17,0,0,0,1.13-1.26,5.58,5.58,0,0,0,.52-1.81,17.28,17.28,0,0,0,0-4.21,5.58,5.58,0,0,0-.52-1.8,3.17,3.17,0,0,0-1.12-1.26,4.26,4.26,0,0,0-3.91,0,3.16,3.16,0,0,0-1.13,1.26,5.56,5.56,0,0,0-.52,1.8A17,17,0,0,0,662.58,259.79Z"/><path class="cls-1" d="M679.07,260.35a5.78,5.78,0,0,0,1.13,3.8,4,4,0,0,0,3.29,1.35,5.78,5.78,0,0,0,1.68-.25,4.19,4.19,0,0,0,1.5-.82,3.32,3.32,0,0,1,.56-0.42,1,1,0,0,1,.47-0.11,0.83,0.83,0,0,1,.35.08,1,1,0,0,1,.29.21,1.19,1.19,0,0,1,.21.31,0.81,0.81,0,0,1,.08.36,0.89,0.89,0,0,1-.16.5,2.55,2.55,0,0,1-.39.46,4.81,4.81,0,0,1-.5.41l-0.49.32a6.27,6.27,0,0,1-1.62.63,8.59,8.59,0,0,1-2.08.23,7.55,7.55,0,0,1-2.68-.45,5.29,5.29,0,0,1-2.05-1.38,6.29,6.29,0,0,1-1.31-2.36,12.72,12.72,0,0,1,0-6.68,6.78,6.78,0,0,1,1.23-2.39,5.19,5.19,0,0,1,1.93-1.46,6.23,6.23,0,0,1,2.54-.5,6.3,6.3,0,0,1,2.54.49,5.3,5.3,0,0,1,1.91,1.4,6.35,6.35,0,0,1,1.21,2.17,9.2,9.2,0,0,1,.44,2.83,3.18,3.18,0,0,1,0,.51,0.87,0.87,0,0,1-.26.49,0.81,0.81,0,0,1-.46.25,3.37,3.37,0,0,1-.51,0h-8.77Zm7.88-1.66c0-.26,0-0.5,0-0.71s0-.41-0.08-0.59-0.08-.36-0.14-0.54-0.12-.37-0.2-0.57a3.48,3.48,0,0,0-1.34-1.62,4.12,4.12,0,0,0-4.28,0,3.42,3.42,0,0,0-1.33,1.62c-0.08.2-.15,0.39-0.2,0.57a5.53,5.53,0,0,0-.14.54,5.94,5.94,0,0,0-.08.59c0,0.21,0,.45,0,0.71H687Z"/><path class="cls-7" d="M488.93,468.5h-184a8,8,0,0,1-8-8v-84a8,8,0,0,1,8-8h184a8,8,0,0,1,8,8v84A8,8,0,0,1,488.93,468.5Z"/><path class="cls-1" d="M369,426.53a1.59,1.59,0,0,1-.36,1.16,1.19,1.19,0,0,1-.87.36,1.09,1.09,0,0,1-.72-0.24,3.29,3.29,0,0,1-.6-0.68l-11-16.31v15.66a4.17,4.17,0,0,1,0,.67,1.16,1.16,0,0,1-.17.42,1,1,0,0,1-.38.35,1.25,1.25,0,0,1-1.13,0,1,1,0,0,1-.38-0.35,1.13,1.13,0,0,1-.17-0.42,4.14,4.14,0,0,1,0-.67V407.83a1.59,1.59,0,0,1,.36-1.16,1.13,1.13,0,0,1,.88-0.36,1.1,1.1,0,0,1,.72.24,3.29,3.29,0,0,1,.6.68l11,16.31V407.88a4.3,4.3,0,0,1,0-.67,1.19,1.19,0,0,1,.17-0.42,1.05,1.05,0,0,1,.39-0.35,1.25,1.25,0,0,1,1.13,0,1,1,0,0,1,.38.35,1.17,1.17,0,0,1,.17.42,4.27,4.27,0,0,1,0,.67v18.65Z"/><path class="cls-1" d="M380.1,412.89a6.1,6.1,0,0,1,2.44.46,5.86,5.86,0,0,1,1.84,1.23,5.6,5.6,0,0,1,.94,1.27,6.55,6.55,0,0,1,.56,1.43,9.17,9.17,0,0,1,.27,1.56q0.07,0.81.07,1.67t-0.07,1.67a9.19,9.19,0,0,1-.27,1.56,6.54,6.54,0,0,1-.56,1.43,5.58,5.58,0,0,1-.94,1.27,5.85,5.85,0,0,1-1.84,1.23,6.68,6.68,0,0,1-4.88,0,5.85,5.85,0,0,1-1.83-1.23,5.56,5.56,0,0,1-.94-1.27,6.54,6.54,0,0,1-.56-1.43,9,9,0,0,1-.26-1.56q-0.07-.81-0.07-1.67t0.07-1.67a9,9,0,0,1,.26-1.56,6.55,6.55,0,0,1,.56-1.43,5.58,5.58,0,0,1,.94-1.27,5.87,5.87,0,0,1,1.83-1.23A6.1,6.1,0,0,1,380.1,412.89Zm0,13.26a3.65,3.65,0,0,0,2.69-1.07,3,3,0,0,0,.63-0.91,5.58,5.58,0,0,0,.36-1.12,8.67,8.67,0,0,0,.17-1.25q0-.65,0-1.3t0-1.29a8.67,8.67,0,0,0-.17-1.24,5.6,5.6,0,0,0-.36-1.12,3,3,0,0,0-.63-0.91,3.71,3.71,0,0,0-1.2-.82,4.21,4.21,0,0,0-3,0,3.69,3.69,0,0,0-1.2.82,3,3,0,0,0-.63.91,5.54,5.54,0,0,0-.36,1.12,8.81,8.81,0,0,0-.17,1.24q0,0.64,0,1.29t0,1.3a8.81,8.81,0,0,0,.17,1.25,5.52,5.52,0,0,0,.36,1.12,3,3,0,0,0,.63.91A3.65,3.65,0,0,0,380.1,426.15Z"/><path class="cls-1" d="M390.07,420.5q0-.89.08-1.78a10.65,10.65,0,0,1,.28-1.71,7.55,7.55,0,0,1,.56-1.53,4.86,4.86,0,0,1,.93-1.29,4.25,4.25,0,0,1,1.53-.94,5.89,5.89,0,0,1,2.1-.36,8,8,0,0,1,1.16.08,4.74,4.74,0,0,1,1.08.29,4.35,4.35,0,0,1,1,.58,5.81,5.81,0,0,1,1,.94v-7a3.49,3.49,0,0,1,0-.6,1.29,1.29,0,0,1,.16-0.42,0.88,0.88,0,0,1,.36-0.34,1.21,1.21,0,0,1,1.09,0,0.88,0.88,0,0,1,.36.34,1.32,1.32,0,0,1,.16.42,3.62,3.62,0,0,1,0,.6v18.79a3.62,3.62,0,0,1,0,.6,1.32,1.32,0,0,1-.16.42,0.88,0.88,0,0,1-.36.34,1.21,1.21,0,0,1-1.09,0,0.88,0.88,0,0,1-.36-0.34,1.29,1.29,0,0,1-.16-0.42,3.49,3.49,0,0,1,0-.6v-0.42a6,6,0,0,1-.94,1,4.48,4.48,0,0,1-1,.6,4.28,4.28,0,0,1-1.08.31,8.1,8.1,0,0,1-1.18.08,5.89,5.89,0,0,1-2.1-.36,4.25,4.25,0,0,1-1.53-.94,4.6,4.6,0,0,1-.93-1.28,7.73,7.73,0,0,1-.56-1.54,10.62,10.62,0,0,1-.28-1.71Q390.07,421.39,390.07,420.5Zm2.21,0a16.78,16.78,0,0,0,.13,2.11,5.55,5.55,0,0,0,.52,1.81,3.16,3.16,0,0,0,1.13,1.26,4.26,4.26,0,0,0,3.91,0,3.17,3.17,0,0,0,1.13-1.26,5.55,5.55,0,0,0,.52-1.81,17.28,17.28,0,0,0,0-4.21,5.56,5.56,0,0,0-.52-1.8,3.17,3.17,0,0,0-1.12-1.26,4.26,4.26,0,0,0-3.91,0,3.16,3.16,0,0,0-1.13,1.26,5.56,5.56,0,0,0-.52,1.8A16.8,16.8,0,0,0,392.27,420.5Z"/><path class="cls-1" d="M408.76,421.06a5.78,5.78,0,0,0,1.13,3.8,4,4,0,0,0,3.29,1.35,5.78,5.78,0,0,0,1.68-.25,4.19,4.19,0,0,0,1.5-.82,3.28,3.28,0,0,1,.56-0.42,1,1,0,0,1,.47-0.11,0.83,0.83,0,0,1,.35.08,1,1,0,0,1,.29.21,1.22,1.22,0,0,1,.21.31,0.81,0.81,0,0,1,.08.36,0.9,0.9,0,0,1-.16.5,2.55,2.55,0,0,1-.39.46,4.81,4.81,0,0,1-.5.41l-0.49.32a6.26,6.26,0,0,1-1.62.63,8.6,8.6,0,0,1-2.08.23,7.55,7.55,0,0,1-2.68-.45,5.29,5.29,0,0,1-2.05-1.38,6.26,6.26,0,0,1-1.31-2.36,12.74,12.74,0,0,1,0-6.68,6.77,6.77,0,0,1,1.23-2.39,5.2,5.2,0,0,1,1.93-1.46,6.23,6.23,0,0,1,2.54-.5,6.3,6.3,0,0,1,2.54.49,5.3,5.3,0,0,1,1.91,1.4,6.33,6.33,0,0,1,1.21,2.17,9.2,9.2,0,0,1,.44,2.83,3.08,3.08,0,0,1,0,.51,0.87,0.87,0,0,1-.26.49,0.82,0.82,0,0,1-.46.25,3.34,3.34,0,0,1-.51,0h-8.78Zm7.88-1.66c0-.26,0-0.5,0-0.71s0-.41-0.08-0.59a5.28,5.28,0,0,0-.14-0.54c-0.05-.18-0.12-0.37-0.2-0.57a3.47,3.47,0,0,0-1.34-1.62,4.12,4.12,0,0,0-4.28,0,3.42,3.42,0,0,0-1.33,1.62c-0.08.2-.15,0.39-0.2,0.57a5.27,5.27,0,0,0-.14.54q-0.05.27-.08,0.59c0,0.21,0,.45,0,0.71h7.88Z"/><path class="cls-1" d="M433.43,412.11a4.61,4.61,0,0,1-.42.37,0.8,0.8,0,0,1-.51.16,1,1,0,0,1-.74-0.32,1,1,0,0,1-.3-0.71,0.87,0.87,0,0,1,.13-0.48,3.47,3.47,0,0,1,.46-0.54l3.69-3.68a2.43,2.43,0,0,1,.6-0.45,1.39,1.39,0,0,1,.64-0.15,1.23,1.23,0,0,1,.86.33,0.92,0.92,0,0,1,.27.51,4,4,0,0,1,.06.73v18.7a3.47,3.47,0,0,1,0,.6,1.34,1.34,0,0,1-.16.42,0.87,0.87,0,0,1-.36.34,1.21,1.21,0,0,1-1.09,0,0.86,0.86,0,0,1-.36-0.34,1.34,1.34,0,0,1-.16-0.42,3.51,3.51,0,0,1,0-.6v-17Z"/><rect class="cls-7" x="505.93" y="368.83" width="200" height="100" rx="8" ry="8"/><path class="cls-1" d="M578,426.85a1.59,1.59,0,0,1-.36,1.16,1.19,1.19,0,0,1-.87.36,1.09,1.09,0,0,1-.72-0.24,3.29,3.29,0,0,1-.6-0.68l-11-16.31v15.66a4.17,4.17,0,0,1,0,.67,1.16,1.16,0,0,1-.17.42,1,1,0,0,1-.38.35,1.25,1.25,0,0,1-1.13,0,1,1,0,0,1-.38-0.35,1.13,1.13,0,0,1-.17-0.42,4.14,4.14,0,0,1,0-.67V408.16a1.59,1.59,0,0,1,.36-1.16,1.13,1.13,0,0,1,.88-0.36,1.1,1.1,0,0,1,.72.24,3.29,3.29,0,0,1,.6.68l11,16.31V408.2a4.3,4.3,0,0,1,0-.67,1.19,1.19,0,0,1,.17-0.42,1.05,1.05,0,0,1,.39-0.35,1.25,1.25,0,0,1,1.13,0,1,1,0,0,1,.38.35,1.17,1.17,0,0,1,.17.42,4.27,4.27,0,0,1,0,.67v18.65Z"/><path class="cls-1" d="M589.1,413.22a6.1,6.1,0,0,1,2.44.46,5.86,5.86,0,0,1,1.84,1.23,5.6,5.6,0,0,1,.94,1.27,6.55,6.55,0,0,1,.56,1.43,9.17,9.17,0,0,1,.27,1.56q0.07,0.81.07,1.67t-0.07,1.67a9.19,9.19,0,0,1-.27,1.56,6.54,6.54,0,0,1-.56,1.43,5.58,5.58,0,0,1-.94,1.27,5.85,5.85,0,0,1-1.84,1.23,6.68,6.68,0,0,1-4.88,0,5.85,5.85,0,0,1-1.83-1.23,5.56,5.56,0,0,1-.94-1.27,6.54,6.54,0,0,1-.56-1.43,9,9,0,0,1-.26-1.56q-0.07-.81-0.07-1.67t0.07-1.67a9,9,0,0,1,.26-1.56,6.55,6.55,0,0,1,.56-1.43,5.58,5.58,0,0,1,.94-1.27,5.87,5.87,0,0,1,1.83-1.23A6.1,6.1,0,0,1,589.1,413.22Zm0,13.26a3.65,3.65,0,0,0,2.69-1.07,3,3,0,0,0,.63-0.91,5.58,5.58,0,0,0,.36-1.12,8.67,8.67,0,0,0,.17-1.25q0-.65,0-1.3t0-1.29a8.67,8.67,0,0,0-.17-1.24,5.6,5.6,0,0,0-.36-1.12,3,3,0,0,0-.63-0.91,3.71,3.71,0,0,0-1.2-.82,4.21,4.21,0,0,0-3,0,3.69,3.69,0,0,0-1.2.82,3,3,0,0,0-.63.91,5.54,5.54,0,0,0-.36,1.12,8.81,8.81,0,0,0-.17,1.24q0,0.64,0,1.29t0,1.3a8.81,8.81,0,0,0,.17,1.25,5.52,5.52,0,0,0,.36,1.12,3,3,0,0,0,.63.91A3.65,3.65,0,0,0,589.1,426.48Z"/><path class="cls-1" d="M599.07,420.83q0-.89.08-1.78a10.65,10.65,0,0,1,.28-1.71,7.55,7.55,0,0,1,.56-1.53,4.86,4.86,0,0,1,.93-1.29,4.25,4.25,0,0,1,1.53-.94,5.89,5.89,0,0,1,2.1-.36,8,8,0,0,1,1.16.08,4.74,4.74,0,0,1,1.08.29,4.35,4.35,0,0,1,1,.58,5.81,5.81,0,0,1,1,.94v-7a3.49,3.49,0,0,1,0-.6,1.29,1.29,0,0,1,.16-0.42,0.88,0.88,0,0,1,.36-0.34,1.21,1.21,0,0,1,1.09,0,0.88,0.88,0,0,1,.36.34,1.32,1.32,0,0,1,.16.42,3.62,3.62,0,0,1,0,.6V426.9a3.62,3.62,0,0,1,0,.6,1.32,1.32,0,0,1-.16.42,0.88,0.88,0,0,1-.36.34,1.21,1.21,0,0,1-1.09,0,0.88,0.88,0,0,1-.36-0.34,1.29,1.29,0,0,1-.16-0.42,3.49,3.49,0,0,1,0-.6v-0.42a6,6,0,0,1-.94,1,4.48,4.48,0,0,1-1,.6,4.28,4.28,0,0,1-1.08.31,8.1,8.1,0,0,1-1.18.08,5.89,5.89,0,0,1-2.1-.36,4.25,4.25,0,0,1-1.53-.94,4.6,4.6,0,0,1-.93-1.28,7.73,7.73,0,0,1-.56-1.54,10.62,10.62,0,0,1-.28-1.71Q599.07,421.72,599.07,420.83Zm2.21,0a16.78,16.78,0,0,0,.13,2.11,5.55,5.55,0,0,0,.52,1.81A3.16,3.16,0,0,0,603,426a4.26,4.26,0,0,0,3.91,0,3.17,3.17,0,0,0,1.13-1.26,5.55,5.55,0,0,0,.52-1.81,17.28,17.28,0,0,0,0-4.21,5.56,5.56,0,0,0-.52-1.8,3.17,3.17,0,0,0-1.12-1.26,4.26,4.26,0,0,0-3.91,0,3.16,3.16,0,0,0-1.13,1.26,5.56,5.56,0,0,0-.52,1.8A16.8,16.8,0,0,0,601.27,420.83Z"/><path class="cls-1" d="M617.76,421.39a5.78,5.78,0,0,0,1.13,3.8,4,4,0,0,0,3.29,1.35,5.78,5.78,0,0,0,1.68-.25,4.19,4.19,0,0,0,1.5-.82,3.28,3.28,0,0,1,.56-0.42,1,1,0,0,1,.47-0.11,0.83,0.83,0,0,1,.35.08,1,1,0,0,1,.29.21,1.22,1.22,0,0,1,.21.31,0.81,0.81,0,0,1,.08.36,0.9,0.9,0,0,1-.16.5,2.55,2.55,0,0,1-.39.46,4.81,4.81,0,0,1-.5.41l-0.49.32a6.26,6.26,0,0,1-1.62.63,8.6,8.6,0,0,1-2.08.23,7.55,7.55,0,0,1-2.68-.45,5.29,5.29,0,0,1-2.05-1.38,6.26,6.26,0,0,1-1.31-2.36,12.74,12.74,0,0,1,0-6.68,6.77,6.77,0,0,1,1.23-2.39,5.2,5.2,0,0,1,1.93-1.46,6.23,6.23,0,0,1,2.54-.5,6.3,6.3,0,0,1,2.54.49,5.3,5.3,0,0,1,1.91,1.4,6.33,6.33,0,0,1,1.21,2.17,9.2,9.2,0,0,1,.44,2.83,3.08,3.08,0,0,1,0,.51,0.87,0.87,0,0,1-.26.49,0.82,0.82,0,0,1-.46.25,3.34,3.34,0,0,1-.51,0h-8.78Zm7.88-1.66c0-.26,0-0.5,0-0.71s0-.41-0.08-0.59a5.28,5.28,0,0,0-.14-0.54c-0.05-.18-0.12-0.37-0.2-0.57a3.47,3.47,0,0,0-1.34-1.62,4.12,4.12,0,0,0-4.28,0,3.42,3.42,0,0,0-1.33,1.62c-0.08.2-.15,0.39-0.2,0.57a5.27,5.27,0,0,0-.14.54q-0.05.27-.08,0.59c0,0.21,0,.45,0,0.71h7.88Z"/><path class="cls-1" d="M639.07,427.2a1.25,1.25,0,0,1,.16-0.6,5.28,5.28,0,0,1,.51-0.73l7.72-10a7.49,7.49,0,0,0,1.07-1.78,5.32,5.32,0,0,0,.35-2,4.17,4.17,0,0,0-.24-1.44,3.06,3.06,0,0,0-.71-1.12,3.27,3.27,0,0,0-1.15-.73,4.35,4.35,0,0,0-1.56-.26,4.79,4.79,0,0,0-1.23.16,3.55,3.55,0,0,0-1.09.5,3.16,3.16,0,0,0-.86.89,3.88,3.88,0,0,0-.53,1.34,2.28,2.28,0,0,1-.44,1,0.83,0.83,0,0,1-.29.23,1,1,0,0,1-.45.09,0.92,0.92,0,0,1-.79-0.36,1.1,1.1,0,0,1-.19-0.38,1.56,1.56,0,0,1-.05-0.41,3.49,3.49,0,0,1,.1-0.75,5.62,5.62,0,0,1,.29-0.9,6.09,6.09,0,0,1,.5-0.94,5,5,0,0,1,.73-0.88,5.61,5.61,0,0,1,1.83-1.15,6.76,6.76,0,0,1,2.46-.41,7.48,7.48,0,0,1,2.42.37,5.17,5.17,0,0,1,1.86,1.08,4.83,4.83,0,0,1,1.19,1.74,6.07,6.07,0,0,1,.42,2.33,7.19,7.19,0,0,1-.12,1.37,5.92,5.92,0,0,1-.37,1.21,7.7,7.7,0,0,1-.63,1.16q-0.38.58-.87,1.23l-7.14,9.24h7.91a3.21,3.21,0,0,1,.56,0,1,1,0,0,1,.36.14,0.87,0.87,0,0,1,.42.8,0.93,0.93,0,0,1-.42.82,1.23,1.23,0,0,1-.36.13,3.11,3.11,0,0,1-.56,0h-9.08a7.88,7.88,0,0,1-.85,0,0.91,0.91,0,0,1-.58-0.29A1,1,0,0,1,639.07,427.2Z"/><rect class="cls-7" x="716.93" y="368.83" width="200" height="100" rx="8" ry="8"/><path class="cls-1" d="M788.94,426.85a1.6,1.6,0,0,1-.36,1.16,1.2,1.2,0,0,1-.88.36,1.09,1.09,0,0,1-.72-0.24,3.26,3.26,0,0,1-.6-0.68l-11-16.31v15.66a4.14,4.14,0,0,1,0,.67,1.14,1.14,0,0,1-.17.42,1,1,0,0,1-.38.35,1.25,1.25,0,0,1-1.13,0,1,1,0,0,1-.38-0.35,1.16,1.16,0,0,1-.17-0.42,4.17,4.17,0,0,1,0-.67V408.16a1.6,1.6,0,0,1,.36-1.16,1.14,1.14,0,0,1,.88-0.36,1.09,1.09,0,0,1,.72.24,3.26,3.26,0,0,1,.6.68l11,16.31V408.2a4.27,4.27,0,0,1,0-.67,1.17,1.17,0,0,1,.17-0.42,1,1,0,0,1,.39-0.35,1.25,1.25,0,0,1,1.13,0,1,1,0,0,1,.38.35,1.19,1.19,0,0,1,.17.42,4.3,4.3,0,0,1,0,.67v18.65Z"/><path class="cls-1" d="M800.09,413.22a6.1,6.1,0,0,1,2.44.46,5.87,5.87,0,0,1,1.83,1.23,5.58,5.58,0,0,1,.94,1.27,6.6,6.6,0,0,1,.56,1.43,9.08,9.08,0,0,1,.26,1.56q0.07,0.81.07,1.67t-0.07,1.67a9.09,9.09,0,0,1-.26,1.56,6.59,6.59,0,0,1-.56,1.43,5.56,5.56,0,0,1-.94,1.27,5.85,5.85,0,0,1-1.83,1.23,6.68,6.68,0,0,1-4.88,0,5.85,5.85,0,0,1-1.84-1.23,5.55,5.55,0,0,1-.94-1.27,6.49,6.49,0,0,1-.56-1.43,9.09,9.09,0,0,1-.27-1.56q-0.07-.81-0.07-1.67t0.07-1.67a9.08,9.08,0,0,1,.27-1.56,6.5,6.5,0,0,1,.56-1.43,5.57,5.57,0,0,1,.94-1.27,5.86,5.86,0,0,1,1.84-1.23A6.09,6.09,0,0,1,800.09,413.22Zm0,13.26a3.65,3.65,0,0,0,2.69-1.07,3,3,0,0,0,.63-0.91,5.52,5.52,0,0,0,.36-1.12,9,9,0,0,0,.17-1.25q0-.65,0-1.3t0-1.29a9,9,0,0,0-.17-1.24,5.54,5.54,0,0,0-.36-1.12,3,3,0,0,0-.63-0.91,3.69,3.69,0,0,0-1.2-.82,4.21,4.21,0,0,0-3,0,3.71,3.71,0,0,0-1.2.82,3,3,0,0,0-.63.91,5.54,5.54,0,0,0-.36,1.12,8.67,8.67,0,0,0-.17,1.24q0,0.64,0,1.29t0,1.3a8.67,8.67,0,0,0,.17,1.25,5.52,5.52,0,0,0,.36,1.12,3,3,0,0,0,.63.91A3.65,3.65,0,0,0,800.09,426.48Z"/><path class="cls-1" d="M810.06,420.83q0-.89.08-1.78a10.87,10.87,0,0,1,.28-1.71,7.6,7.6,0,0,1,.56-1.53,4.86,4.86,0,0,1,.93-1.29,4.24,4.24,0,0,1,1.53-.94,5.88,5.88,0,0,1,2.1-.36,8,8,0,0,1,1.16.08,4.73,4.73,0,0,1,1.08.29,4.33,4.33,0,0,1,1,.58,5.77,5.77,0,0,1,1,.94v-7a3.47,3.47,0,0,1,0-.6,1.29,1.29,0,0,1,.16-0.42,0.87,0.87,0,0,1,.36-0.34,1.21,1.21,0,0,1,1.09,0,0.88,0.88,0,0,1,.36.34,1.34,1.34,0,0,1,.16.42,3.51,3.51,0,0,1,0,.6V426.9a3.51,3.51,0,0,1,0,.6,1.34,1.34,0,0,1-.16.42,0.88,0.88,0,0,1-.36.34,1.21,1.21,0,0,1-1.09,0,0.87,0.87,0,0,1-.36-0.34,1.29,1.29,0,0,1-.16-0.42,3.47,3.47,0,0,1,0-.6v-0.42a5.94,5.94,0,0,1-.94,1,4.45,4.45,0,0,1-1,.6,4.28,4.28,0,0,1-1.08.31,8.12,8.12,0,0,1-1.18.08,5.88,5.88,0,0,1-2.1-.36,4.24,4.24,0,0,1-1.53-.94,4.6,4.6,0,0,1-.93-1.28,7.8,7.8,0,0,1-.56-1.54,10.84,10.84,0,0,1-.28-1.71Q810.06,421.72,810.06,420.83Zm2.21,0a16.78,16.78,0,0,0,.13,2.11,5.58,5.58,0,0,0,.52,1.81A3.17,3.17,0,0,0,814,426a4.26,4.26,0,0,0,3.91,0,3.17,3.17,0,0,0,1.13-1.26,5.55,5.55,0,0,0,.52-1.81,17.41,17.41,0,0,0,0-4.21,5.56,5.56,0,0,0-.52-1.8,3.17,3.17,0,0,0-1.12-1.26,4.26,4.26,0,0,0-3.91,0,3.17,3.17,0,0,0-1.12,1.26,5.58,5.58,0,0,0-.52,1.8A16.8,16.8,0,0,0,812.26,420.83Z"/><path class="cls-1" d="M828.76,421.39a5.77,5.77,0,0,0,1.13,3.8,4,4,0,0,0,3.28,1.35,5.79,5.79,0,0,0,1.68-.25,4.19,4.19,0,0,0,1.5-.82,3.36,3.36,0,0,1,.56-0.42,1,1,0,0,1,.47-0.11,0.83,0.83,0,0,1,.35.08,1,1,0,0,1,.29.21,1.27,1.27,0,0,1,.21.31,0.83,0.83,0,0,1,.08.36,0.9,0.9,0,0,1-.16.5,2.51,2.51,0,0,1-.39.46,4.9,4.9,0,0,1-.5.41l-0.49.32a6.25,6.25,0,0,1-1.62.63,8.59,8.59,0,0,1-2.08.23,7.56,7.56,0,0,1-2.68-.45,5.28,5.28,0,0,1-2.05-1.38,6.26,6.26,0,0,1-1.31-2.36,12.72,12.72,0,0,1,0-6.68,6.77,6.77,0,0,1,1.23-2.39,5.19,5.19,0,0,1,1.93-1.46,6.22,6.22,0,0,1,2.54-.5,6.31,6.31,0,0,1,2.54.49,5.3,5.3,0,0,1,1.91,1.4,6.35,6.35,0,0,1,1.21,2.17,9.2,9.2,0,0,1,.44,2.83,3.19,3.19,0,0,1,0,.51,0.88,0.88,0,0,1-.26.49,0.81,0.81,0,0,1-.46.25,3.33,3.33,0,0,1-.51,0h-8.78Zm7.88-1.66c0-.26,0-0.5,0-0.71s0-.41-0.08-0.59a5.27,5.27,0,0,0-.14-0.54q-0.08-.27-0.2-0.57a3.46,3.46,0,0,0-1.34-1.62,4.12,4.12,0,0,0-4.28,0,3.42,3.42,0,0,0-1.33,1.62c-0.08.2-.15,0.39-0.2,0.57a5,5,0,0,0-.14.54q-0.05.27-.08,0.59c0,0.21,0,.45,0,0.71h7.88Z"/><path class="cls-1" d="M854.55,417.23a0.9,0.9,0,0,1,.42-0.79,1.56,1.56,0,0,1,.8-0.17,3.63,3.63,0,0,0,2.82-1.07,4.12,4.12,0,0,0,.94-2.85,4.3,4.3,0,0,0-.29-1.62,3.58,3.58,0,0,0-.79-1.21,3.27,3.27,0,0,0-1.19-.75,4.27,4.27,0,0,0-1.5-.26,4,4,0,0,0-2.36.63,3.37,3.37,0,0,0-1.22,2.08,2.42,2.42,0,0,1-.2.58,1.31,1.31,0,0,1-.27.37,0.77,0.77,0,0,1-.29.18,1.16,1.16,0,0,1-.39.06,0.89,0.89,0,0,1-.57-0.18,0.93,0.93,0,0,1-.33-0.48,2,2,0,0,1-.08-0.42,1.88,1.88,0,0,1,0-.45,4.21,4.21,0,0,1,.47-1.52,4.81,4.81,0,0,1,1-1.31,4.88,4.88,0,0,1,1.85-1.16,7.43,7.43,0,0,1,2.41-.36,7,7,0,0,1,2.38.39,5.5,5.5,0,0,1,1.9,1.13,5.18,5.18,0,0,1,1.25,1.8,6.09,6.09,0,0,1,.45,2.41,5.57,5.57,0,0,1-.75,3,4.75,4.75,0,0,1-2.24,1.87,5.41,5.41,0,0,1,1.36.7,4.06,4.06,0,0,1,1,1.09,5.34,5.34,0,0,1,.67,1.51,7.31,7.31,0,0,1,.24,2,5.93,5.93,0,0,1-.51,2.51,5.81,5.81,0,0,1-1.38,1.9,6.09,6.09,0,0,1-2,1.21,7.16,7.16,0,0,1-2.46.42,10.91,10.91,0,0,1-1.53-.1,6.19,6.19,0,0,1-1.25-.3,5.38,5.38,0,0,1-1-.5,5.48,5.48,0,0,1-.89-0.7,4.7,4.7,0,0,1-1-1.42,4.07,4.07,0,0,1-.39-1.77,2,2,0,0,1,.08-0.57,1,1,0,0,1,.24-0.42,1,1,0,0,1,.77-0.32,0.9,0.9,0,0,1,.67.24,1.18,1.18,0,0,1,.26.38,2,2,0,0,1,.16.51,3.35,3.35,0,0,0,1.26,2.31,4.53,4.53,0,0,0,2.65.69,4.63,4.63,0,0,0,1.63-.29,3.84,3.84,0,0,0,2.23-2.12,4.89,4.89,0,0,0-.7-4.78,4.1,4.1,0,0,0-3.07-1.1A1.55,1.55,0,0,1,855,418,0.9,0.9,0,0,1,854.55,417.23Z"/><rect class="cls-8" x="296.93" y="528.55" width="200" height="100" rx="8" ry="8"/><path class="cls-1" d="M367.61,586.58a1.59,1.59,0,0,1-.36,1.16,1.2,1.2,0,0,1-.88.36,1.1,1.1,0,0,1-.72-0.24,3.32,3.32,0,0,1-.6-0.68l-11-16.31v15.66a4.29,4.29,0,0,1,0,.67,1.18,1.18,0,0,1-.17.42,1,1,0,0,1-.39.35,1.25,1.25,0,0,1-1.13,0,1,1,0,0,1-.39-0.35,1.14,1.14,0,0,1-.17-0.42,4.14,4.14,0,0,1,0-.67V567.88a1.59,1.59,0,0,1,.36-1.16,1.13,1.13,0,0,1,.88-0.36,1.09,1.09,0,0,1,.72.24,3.29,3.29,0,0,1,.6.68l11,16.31V567.93a4.18,4.18,0,0,1,0-.67,1.17,1.17,0,0,1,.17-0.42,1,1,0,0,1,.38-0.35,1.25,1.25,0,0,1,1.13,0,1,1,0,0,1,.38.35,1.15,1.15,0,0,1,.17.42,4.15,4.15,0,0,1,0,.67v18.65Z"/><path class="cls-1" d="M378.75,572.94a6.1,6.1,0,0,1,2.44.46,5.87,5.87,0,0,1,1.83,1.23,5.64,5.64,0,0,1,.94,1.27,6.55,6.55,0,0,1,.56,1.43,9.17,9.17,0,0,1,.26,1.56q0.07,0.81.07,1.67t-0.07,1.67a9.19,9.19,0,0,1-.26,1.56,6.54,6.54,0,0,1-.56,1.43,5.61,5.61,0,0,1-.94,1.27,5.85,5.85,0,0,1-1.83,1.23,6.69,6.69,0,0,1-4.88,0,5.86,5.86,0,0,1-1.83-1.23,5.59,5.59,0,0,1-.94-1.27,6.59,6.59,0,0,1-.56-1.43,9.09,9.09,0,0,1-.26-1.56q-0.07-.81-0.07-1.67t0.07-1.67a9.08,9.08,0,0,1,.26-1.56,6.6,6.6,0,0,1,.56-1.43,5.61,5.61,0,0,1,.94-1.27,5.88,5.88,0,0,1,1.83-1.23A6.11,6.11,0,0,1,378.75,572.94Zm0,13.26a3.65,3.65,0,0,0,2.69-1.07,3,3,0,0,0,.63-0.91,5.65,5.65,0,0,0,.36-1.12,8.81,8.81,0,0,0,.17-1.25q0-.65,0-1.3t0-1.29a8.81,8.81,0,0,0-.17-1.24,5.67,5.67,0,0,0-.36-1.12,3,3,0,0,0-.63-0.91,3.7,3.7,0,0,0-1.2-.82,4.21,4.21,0,0,0-3,0,3.67,3.67,0,0,0-1.2.82,3,3,0,0,0-.63.91,5.61,5.61,0,0,0-.36,1.12,9,9,0,0,0-.17,1.24q0,0.64,0,1.29t0,1.3a9,9,0,0,0,.17,1.25,5.59,5.59,0,0,0,.36,1.12,3,3,0,0,0,.63.91A3.64,3.64,0,0,0,378.75,586.2Z"/><path class="cls-1" d="M388.72,580.55q0-.89.08-1.78a10.76,10.76,0,0,1,.28-1.71,7.55,7.55,0,0,1,.56-1.53,4.86,4.86,0,0,1,.93-1.29,4.25,4.25,0,0,1,1.53-.94,5.9,5.9,0,0,1,2.1-.36,8,8,0,0,1,1.16.08,4.74,4.74,0,0,1,1.08.29,4.38,4.38,0,0,1,1,.58,5.85,5.85,0,0,1,1,.94v-7a3.51,3.51,0,0,1,0-.6,1.34,1.34,0,0,1,.16-0.42,0.88,0.88,0,0,1,.36-0.34,1.13,1.13,0,0,1,.54-0.13,1.15,1.15,0,0,1,.54.13,0.87,0.87,0,0,1,.36.34,1.32,1.32,0,0,1,.16.42,3.6,3.6,0,0,1,0,.6v18.79a3.6,3.6,0,0,1,0,.6,1.32,1.32,0,0,1-.16.42,0.87,0.87,0,0,1-.36.34,1.15,1.15,0,0,1-.54.13,1.13,1.13,0,0,1-.54-0.13,0.88,0.88,0,0,1-.36-0.34,1.34,1.34,0,0,1-.16-0.42,3.51,3.51,0,0,1,0-.6V586.2a6,6,0,0,1-.94,1,4.43,4.43,0,0,1-1,.6,4.27,4.27,0,0,1-1.08.31,8.1,8.1,0,0,1-1.18.08,5.9,5.9,0,0,1-2.1-.36,4.25,4.25,0,0,1-1.53-.94,4.6,4.6,0,0,1-.93-1.28,7.74,7.74,0,0,1-.56-1.54,10.73,10.73,0,0,1-.28-1.71Q388.72,581.44,388.72,580.55Zm2.21,0a17,17,0,0,0,.13,2.11,5.55,5.55,0,0,0,.52,1.81,3.16,3.16,0,0,0,1.13,1.26,4.26,4.26,0,0,0,3.91,0,3.17,3.17,0,0,0,1.13-1.26,5.58,5.58,0,0,0,.52-1.81,17.28,17.28,0,0,0,0-4.21,5.58,5.58,0,0,0-.52-1.8,3.17,3.17,0,0,0-1.12-1.26,4.26,4.26,0,0,0-3.91,0,3.16,3.16,0,0,0-1.13,1.26,5.56,5.56,0,0,0-.52,1.8A17,17,0,0,0,390.93,580.55Z"/><path class="cls-1" d="M407.42,581.11a5.78,5.78,0,0,0,1.13,3.8,4,4,0,0,0,3.29,1.35,5.78,5.78,0,0,0,1.68-.25,4.19,4.19,0,0,0,1.5-.82,3.32,3.32,0,0,1,.56-0.42,1,1,0,0,1,.47-0.11,0.83,0.83,0,0,1,.35.08,1,1,0,0,1,.29.21,1.19,1.19,0,0,1,.21.31,0.81,0.81,0,0,1,.08.36,0.89,0.89,0,0,1-.16.5,2.55,2.55,0,0,1-.39.46,4.81,4.81,0,0,1-.5.41l-0.49.32a6.27,6.27,0,0,1-1.62.63,8.59,8.59,0,0,1-2.08.23,7.55,7.55,0,0,1-2.68-.45,5.29,5.29,0,0,1-2.05-1.38,6.29,6.29,0,0,1-1.31-2.36,12.72,12.72,0,0,1,0-6.68,6.78,6.78,0,0,1,1.23-2.39,5.19,5.19,0,0,1,1.93-1.46,6.23,6.23,0,0,1,2.54-.5,6.3,6.3,0,0,1,2.54.49,5.3,5.3,0,0,1,1.91,1.4A6.35,6.35,0,0,1,417,577a9.2,9.2,0,0,1,.44,2.83,3.18,3.18,0,0,1,0,.51,0.87,0.87,0,0,1-.26.49,0.81,0.81,0,0,1-.46.25,3.37,3.37,0,0,1-.51,0h-8.77Zm7.88-1.66c0-.26,0-0.5,0-0.71s0-.41-0.08-0.59-0.08-.36-0.14-0.54-0.12-.37-0.2-0.57a3.48,3.48,0,0,0-1.34-1.62,4.12,4.12,0,0,0-4.28,0,3.42,3.42,0,0,0-1.33,1.62c-0.08.2-.15,0.39-0.2,0.57a5.53,5.53,0,0,0-.14.54,5.94,5.94,0,0,0-.08.59c0,0.21,0,.45,0,0.71h7.88Z"/><path class="cls-1" d="M434.74,567.56a3.06,3.06,0,0,1,.23-0.51,3.18,3.18,0,0,1,.23-0.32,1.5,1.5,0,0,1,.37-0.27,1.19,1.19,0,0,1,1,0,1.5,1.5,0,0,1,.37.27,3.57,3.57,0,0,1,.23.32,2.62,2.62,0,0,1,.23.51l7,18.64c0.05,0.14.1,0.28,0.14,0.42a1.47,1.47,0,0,1,.06.4,1.12,1.12,0,0,1-.07.38,1,1,0,0,1-.23.35,1.19,1.19,0,0,1-.38.26,1.17,1.17,0,0,1-.47.09,1,1,0,0,1-.59-0.2,1.32,1.32,0,0,1-.29-0.33,4.09,4.09,0,0,1-.27-0.6l-1.42-3.87h-9.56L429.85,587a4.34,4.34,0,0,1-.27.6,1.34,1.34,0,0,1-.29.33,1,1,0,0,1-.59.2,1.15,1.15,0,0,1-.85-0.35,1,1,0,0,1-.23-0.35,1,1,0,0,1-.06-0.38,1.77,1.77,0,0,1,.07-0.4c0-.14.09-0.28,0.14-0.42ZM432,581.13h8.11l-4-11.07Z"/><rect class="cls-8" x="505.93" y="528.88" width="200" height="100" rx="8" ry="8"/><path class="cls-1" d="M575.72,586.9a1.6,1.6,0,0,1-.36,1.16,1.2,1.2,0,0,1-.88.36,1.09,1.09,0,0,1-.72-0.24,3.29,3.29,0,0,1-.6-0.68l-11-16.31v15.66a4.26,4.26,0,0,1,0,.67,1.16,1.16,0,0,1-.17.42,1,1,0,0,1-.39.35,1.25,1.25,0,0,1-1.13,0,1,1,0,0,1-.39-0.35,1.18,1.18,0,0,1-.17-0.42,4.17,4.17,0,0,1,0-.67V568.2a1.6,1.6,0,0,1,.36-1.16,1.13,1.13,0,0,1,.88-0.36,1.09,1.09,0,0,1,.72.24,3.26,3.26,0,0,1,.6.68l11,16.31V568.25a4.15,4.15,0,0,1,0-.67,1.15,1.15,0,0,1,.17-0.42,1,1,0,0,1,.38-0.35,1.25,1.25,0,0,1,1.13,0,1,1,0,0,1,.38.35,1.17,1.17,0,0,1,.17.42,4.18,4.18,0,0,1,0,.67V586.9Z"/><path class="cls-1" d="M586.86,573.26a6.11,6.11,0,0,1,2.44.46,5.88,5.88,0,0,1,1.83,1.23,5.61,5.61,0,0,1,.94,1.27,6.6,6.6,0,0,1,.56,1.43,9.08,9.08,0,0,1,.26,1.56q0.07,0.81.07,1.67t-0.07,1.67a9.09,9.09,0,0,1-.26,1.56,6.59,6.59,0,0,1-.56,1.43,5.59,5.59,0,0,1-.94,1.27A5.86,5.86,0,0,1,589.3,588a6.69,6.69,0,0,1-4.88,0,5.85,5.85,0,0,1-1.83-1.23,5.59,5.59,0,0,1-.94-1.27,6.54,6.54,0,0,1-.56-1.43,9.19,9.19,0,0,1-.26-1.56q-0.07-.81-0.07-1.67t0.07-1.67a9.17,9.17,0,0,1,.26-1.56,6.55,6.55,0,0,1,.56-1.43,5.61,5.61,0,0,1,.94-1.27,5.87,5.87,0,0,1,1.83-1.23A6.1,6.1,0,0,1,586.86,573.26Zm0,13.26a3.64,3.64,0,0,0,2.69-1.07,3,3,0,0,0,.63-0.91,5.59,5.59,0,0,0,.36-1.12,9.1,9.1,0,0,0,.17-1.25q0-.65,0-1.3t0-1.29a9.1,9.1,0,0,0-.17-1.24,5.61,5.61,0,0,0-.36-1.12,3,3,0,0,0-.63-0.91,3.67,3.67,0,0,0-1.2-.82,4.21,4.21,0,0,0-3,0,3.7,3.7,0,0,0-1.2.82,3,3,0,0,0-.63.91,5.6,5.6,0,0,0-.36,1.12,8.81,8.81,0,0,0-.17,1.24q0,0.64,0,1.29t0,1.3a8.81,8.81,0,0,0,.17,1.25,5.58,5.58,0,0,0,.36,1.12,3,3,0,0,0,.63.91A3.65,3.65,0,0,0,586.86,586.52Z"/><path class="cls-1" d="M596.83,580.88q0-.89.08-1.78a11,11,0,0,1,.28-1.71,7.61,7.61,0,0,1,.56-1.53,4.86,4.86,0,0,1,.93-1.29,4.24,4.24,0,0,1,1.53-.94,5.89,5.89,0,0,1,2.1-.36,8,8,0,0,1,1.16.08,4.73,4.73,0,0,1,1.08.29,4.36,4.36,0,0,1,1,.58,5.81,5.81,0,0,1,1,.94v-7a3.49,3.49,0,0,1,0-.6,1.34,1.34,0,0,1,.16-0.42,0.86,0.86,0,0,1,.36-0.34,1.21,1.21,0,0,1,1.09,0,0.87,0.87,0,0,1,.36.34,1.34,1.34,0,0,1,.16.42,3.49,3.49,0,0,1,0,.6v18.79a3.49,3.49,0,0,1,0,.6,1.34,1.34,0,0,1-.16.42,0.87,0.87,0,0,1-.36.34,1.21,1.21,0,0,1-1.09,0,0.86,0.86,0,0,1-.36-0.34,1.34,1.34,0,0,1-.16-0.42,3.49,3.49,0,0,1,0-.6v-0.42a5.9,5.9,0,0,1-.94,1,4.41,4.41,0,0,1-1,.6,4.27,4.27,0,0,1-1.08.31,8.12,8.12,0,0,1-1.18.08,5.89,5.89,0,0,1-2.1-.36,4.24,4.24,0,0,1-1.53-.94,4.6,4.6,0,0,1-.93-1.28,7.8,7.8,0,0,1-.56-1.54,11,11,0,0,1-.28-1.71Q596.83,581.77,596.83,580.88Zm2.21,0a17,17,0,0,0,.13,2.11,5.58,5.58,0,0,0,.52,1.81,3.17,3.17,0,0,0,1.13,1.26,4.26,4.26,0,0,0,3.91,0,3.17,3.17,0,0,0,1.13-1.26,5.58,5.58,0,0,0,.52-1.81,17.41,17.41,0,0,0,0-4.21,5.58,5.58,0,0,0-.52-1.8,3.17,3.17,0,0,0-1.12-1.26,4.26,4.26,0,0,0-3.91,0,3.17,3.17,0,0,0-1.12,1.26,5.58,5.58,0,0,0-.52,1.8A17,17,0,0,0,599,580.88Z"/><path class="cls-1" d="M615.53,581.43a5.77,5.77,0,0,0,1.13,3.8,4,4,0,0,0,3.28,1.35,5.79,5.79,0,0,0,1.68-.25,4.19,4.19,0,0,0,1.5-.82,3.4,3.4,0,0,1,.56-0.42,1,1,0,0,1,.47-0.11,0.83,0.83,0,0,1,.35.08,1,1,0,0,1,.29.21,1.24,1.24,0,0,1,.21.31,0.83,0.83,0,0,1,.08.36,0.89,0.89,0,0,1-.16.5,2.51,2.51,0,0,1-.39.46,4.9,4.9,0,0,1-.5.41l-0.49.32a6.26,6.26,0,0,1-1.62.63,8.58,8.58,0,0,1-2.08.23,7.55,7.55,0,0,1-2.68-.45,5.29,5.29,0,0,1-2.05-1.38,6.29,6.29,0,0,1-1.31-2.36,12.71,12.71,0,0,1,0-6.68,6.78,6.78,0,0,1,1.23-2.39,5.19,5.19,0,0,1,1.93-1.46,6.22,6.22,0,0,1,2.54-.5,6.31,6.31,0,0,1,2.54.49,5.3,5.3,0,0,1,1.91,1.4,6.36,6.36,0,0,1,1.21,2.17,9.2,9.2,0,0,1,.44,2.83,3.3,3.3,0,0,1,0,.51,0.88,0.88,0,0,1-.26.49,0.81,0.81,0,0,1-.46.25,3.36,3.36,0,0,1-.51,0h-8.77Zm7.88-1.66c0-.26,0-0.5,0-0.71s0-.41-0.08-0.59-0.08-.36-0.14-0.54-0.12-.37-0.2-0.57a3.47,3.47,0,0,0-1.34-1.62,4.12,4.12,0,0,0-4.28,0,3.42,3.42,0,0,0-1.33,1.62c-0.08.2-.15,0.39-0.2,0.57a5.28,5.28,0,0,0-.14.54q-0.05.27-.08,0.59c0,0.21,0,.45,0,0.71h7.88Z"/><path class="cls-1" d="M639.45,588.31a4.24,4.24,0,0,1-.56,0,1,1,0,0,1-.81-0.81,4.25,4.25,0,0,1,0-.56V568.2a4.25,4.25,0,0,1,0-.56,1,1,0,0,1,.81-0.81,4.24,4.24,0,0,1,.56,0h6.72a8.12,8.12,0,0,1,2.58.39,5.75,5.75,0,0,1,2,1.13,5.13,5.13,0,0,1,1.31,1.8,5.94,5.94,0,0,1,.47,2.41,5.17,5.17,0,0,1-.24,1.59,5.07,5.07,0,0,1-.67,1.36,4.89,4.89,0,0,1-1,1.07,4.62,4.62,0,0,1-1.27.69,6,6,0,0,1,1.42.75,4.91,4.91,0,0,1,1.12,1.12,5.26,5.26,0,0,1,.73,1.46,5.67,5.67,0,0,1,.26,1.78,6.59,6.59,0,0,1-.47,2.57,5.07,5.07,0,0,1-1.31,1.86,5.67,5.67,0,0,1-2,1.13,8.45,8.45,0,0,1-2.62.38h-7Zm0.92-19.45v7.46H646a5.94,5.94,0,0,0,1.67-.23,3.77,3.77,0,0,0,1.34-.69,3.21,3.21,0,0,0,.89-1.16,4.45,4.45,0,0,0,0-3.34,3.12,3.12,0,0,0-.89-1.16,3.75,3.75,0,0,0-1.34-.67,6.16,6.16,0,0,0-1.67-.22h-5.62Zm0,9.52v7.88h5.86A5.44,5.44,0,0,0,648,586a3.86,3.86,0,0,0,1.36-.79,3.45,3.45,0,0,0,.86-1.25,4.27,4.27,0,0,0,.3-1.64,4.21,4.21,0,0,0-.3-1.63,3.47,3.47,0,0,0-.86-1.24,3.78,3.78,0,0,0-1.36-.79,5.55,5.55,0,0,0-1.8-.27h-5.86Z"/><rect class="cls-8" x="716.93" y="528.88" width="200" height="100" rx="8" ry="8"/><path class="cls-1" d="M787.2,586.9a1.59,1.59,0,0,1-.36,1.16,1.19,1.19,0,0,1-.87.36,1.09,1.09,0,0,1-.72-0.24,3.29,3.29,0,0,1-.6-0.68l-11-16.31v15.66a4.17,4.17,0,0,1,0,.67,1.16,1.16,0,0,1-.17.42,1,1,0,0,1-.38.35,1.25,1.25,0,0,1-1.13,0,1,1,0,0,1-.38-0.35,1.13,1.13,0,0,1-.17-0.42,4.14,4.14,0,0,1,0-.67V568.2a1.59,1.59,0,0,1,.36-1.16,1.13,1.13,0,0,1,.88-0.36,1.1,1.1,0,0,1,.72.24,3.29,3.29,0,0,1,.6.68l11,16.31V568.25a4.3,4.3,0,0,1,0-.67,1.19,1.19,0,0,1,.17-0.42,1.05,1.05,0,0,1,.39-0.35,1.25,1.25,0,0,1,1.13,0,1,1,0,0,1,.38.35,1.17,1.17,0,0,1,.17.42,4.27,4.27,0,0,1,0,.67V586.9Z"/><path class="cls-1" d="M798.35,573.26a6.1,6.1,0,0,1,2.44.46,5.86,5.86,0,0,1,1.84,1.23,5.6,5.6,0,0,1,.94,1.27,6.55,6.55,0,0,1,.56,1.43,9.17,9.17,0,0,1,.27,1.56q0.07,0.81.07,1.67t-0.07,1.67a9.19,9.19,0,0,1-.27,1.56,6.54,6.54,0,0,1-.56,1.43,5.58,5.58,0,0,1-.94,1.27,5.85,5.85,0,0,1-1.84,1.23,6.68,6.68,0,0,1-4.88,0,5.85,5.85,0,0,1-1.83-1.23,5.56,5.56,0,0,1-.94-1.27,6.54,6.54,0,0,1-.56-1.43,9,9,0,0,1-.26-1.56q-0.07-.81-0.07-1.67t0.07-1.67a9,9,0,0,1,.26-1.56,6.55,6.55,0,0,1,.56-1.43,5.58,5.58,0,0,1,.94-1.27,5.87,5.87,0,0,1,1.83-1.23A6.1,6.1,0,0,1,798.35,573.26Zm0,13.26a3.65,3.65,0,0,0,2.69-1.07,3,3,0,0,0,.63-0.91,5.58,5.58,0,0,0,.36-1.12,8.67,8.67,0,0,0,.17-1.25q0-.65,0-1.3t0-1.29a8.67,8.67,0,0,0-.17-1.24,5.6,5.6,0,0,0-.36-1.12,3,3,0,0,0-.63-0.91,3.71,3.71,0,0,0-1.2-.82,4.21,4.21,0,0,0-3,0,3.69,3.69,0,0,0-1.2.82,3,3,0,0,0-.63.91,5.54,5.54,0,0,0-.36,1.12,8.81,8.81,0,0,0-.17,1.24q0,0.64,0,1.29t0,1.3a8.81,8.81,0,0,0,.17,1.25,5.52,5.52,0,0,0,.36,1.12,3,3,0,0,0,.63.91A3.65,3.65,0,0,0,798.35,586.52Z"/><path class="cls-1" d="M808.31,580.88q0-.89.08-1.78a10.65,10.65,0,0,1,.28-1.71,7.55,7.55,0,0,1,.56-1.53,4.86,4.86,0,0,1,.93-1.29,4.25,4.25,0,0,1,1.53-.94,5.89,5.89,0,0,1,2.1-.36,8,8,0,0,1,1.16.08,4.74,4.74,0,0,1,1.08.29,4.35,4.35,0,0,1,1,.58,5.81,5.81,0,0,1,1,.94v-7a3.49,3.49,0,0,1,0-.6,1.29,1.29,0,0,1,.16-0.42,0.88,0.88,0,0,1,.36-0.34,1.21,1.21,0,0,1,1.09,0,0.88,0.88,0,0,1,.36.34,1.32,1.32,0,0,1,.16.42,3.62,3.62,0,0,1,0,.6v18.79a3.62,3.62,0,0,1,0,.6,1.32,1.32,0,0,1-.16.42,0.88,0.88,0,0,1-.36.34,1.21,1.21,0,0,1-1.09,0,0.88,0.88,0,0,1-.36-0.34,1.29,1.29,0,0,1-.16-0.42,3.49,3.49,0,0,1,0-.6v-0.42a6,6,0,0,1-.94,1,4.48,4.48,0,0,1-1,.6,4.28,4.28,0,0,1-1.08.31,8.1,8.1,0,0,1-1.18.08,5.89,5.89,0,0,1-2.1-.36,4.25,4.25,0,0,1-1.53-.94,4.6,4.6,0,0,1-.93-1.28,7.73,7.73,0,0,1-.56-1.54,10.62,10.62,0,0,1-.28-1.71Q808.31,581.77,808.31,580.88Zm2.21,0a16.78,16.78,0,0,0,.13,2.11,5.55,5.55,0,0,0,.52,1.81,3.16,3.16,0,0,0,1.13,1.26,4.26,4.26,0,0,0,3.91,0,3.17,3.17,0,0,0,1.13-1.26,5.55,5.55,0,0,0,.52-1.81,17.28,17.28,0,0,0,0-4.21,5.56,5.56,0,0,0-.52-1.8,3.17,3.17,0,0,0-1.12-1.26,4.26,4.26,0,0,0-3.91,0,3.16,3.16,0,0,0-1.13,1.26,5.56,5.56,0,0,0-.52,1.8A16.8,16.8,0,0,0,810.52,580.88Z"/><path class="cls-1" d="M827,581.43a5.78,5.78,0,0,0,1.13,3.8,4,4,0,0,0,3.29,1.35,5.78,5.78,0,0,0,1.68-.25,4.19,4.19,0,0,0,1.5-.82,3.28,3.28,0,0,1,.56-0.42,1,1,0,0,1,.47-0.11,0.83,0.83,0,0,1,.35.08,1,1,0,0,1,.29.21,1.22,1.22,0,0,1,.21.31,0.81,0.81,0,0,1,.08.36,0.9,0.9,0,0,1-.16.5,2.55,2.55,0,0,1-.39.46,4.81,4.81,0,0,1-.5.41l-0.49.32a6.26,6.26,0,0,1-1.62.63,8.6,8.6,0,0,1-2.08.23,7.55,7.55,0,0,1-2.68-.45,5.29,5.29,0,0,1-2.05-1.38,6.26,6.26,0,0,1-1.31-2.36,12.74,12.74,0,0,1,0-6.68,6.77,6.77,0,0,1,1.23-2.39,5.2,5.2,0,0,1,1.93-1.46,6.23,6.23,0,0,1,2.54-.5,6.3,6.3,0,0,1,2.54.49,5.3,5.3,0,0,1,1.91,1.4,6.33,6.33,0,0,1,1.21,2.17,9.2,9.2,0,0,1,.44,2.83,3.08,3.08,0,0,1,0,.51,0.87,0.87,0,0,1-.26.49,0.82,0.82,0,0,1-.46.25,3.34,3.34,0,0,1-.51,0H827Zm7.88-1.66c0-.26,0-0.5,0-0.71s0-.41-0.08-0.59a5.28,5.28,0,0,0-.14-0.54c-0.05-.18-0.12-0.37-0.2-0.57a3.47,3.47,0,0,0-1.34-1.62,4.12,4.12,0,0,0-4.28,0,3.42,3.42,0,0,0-1.33,1.62c-0.08.2-.15,0.39-0.2,0.57a5.27,5.27,0,0,0-.14.54q-0.05.27-.08,0.59c0,0.21,0,.45,0,0.71h7.88Z"/><path class="cls-1" d="M848.71,577.55q0-1.86.05-3.18a13.34,13.34,0,0,1,.27-2.32,6.4,6.4,0,0,1,.66-1.77,7.46,7.46,0,0,1,3.55-3.1,7.75,7.75,0,0,1,3-.56,8.58,8.58,0,0,1,1.9.2,7.29,7.29,0,0,1,1.56.54,6.26,6.26,0,0,1,1.28.82,7.39,7.39,0,0,1,1,1,6.94,6.94,0,0,1,.6.85,6.24,6.24,0,0,1,.43.86,5.88,5.88,0,0,1,.26.79,2.69,2.69,0,0,1,.09.63,1.14,1.14,0,0,1-.3.85,1,1,0,0,1-.77.3,1,1,0,0,1-.71-0.24,1.47,1.47,0,0,1-.31-0.42,4.2,4.2,0,0,1-.23-0.55,5.35,5.35,0,0,0-1.8-2.66,4.85,4.85,0,0,0-3-.94,4.93,4.93,0,0,0-3.69,1.54,4.61,4.61,0,0,0-.82,1.13,5.2,5.2,0,0,0-.45,1.44,14.67,14.67,0,0,0-.2,2q0,1.16,0,2.79t0,2.79a14.67,14.67,0,0,0,.2,2,5.2,5.2,0,0,0,.45,1.44,4.61,4.61,0,0,0,.82,1.13,4.93,4.93,0,0,0,3.69,1.54,4.85,4.85,0,0,0,3-.94,5.35,5.35,0,0,0,1.8-2.66,4.24,4.24,0,0,1,.23-0.55,1.47,1.47,0,0,1,.31-0.42,1,1,0,0,1,.71-0.24,1,1,0,0,1,.77.3,1.15,1.15,0,0,1,.3.85,2.69,2.69,0,0,1-.09.63,6.14,6.14,0,0,1-.26.79,5.7,5.7,0,0,1-.43.86,7.25,7.25,0,0,1-.6.85,7.33,7.33,0,0,1-1,1,6.26,6.26,0,0,1-1.28.82,7.34,7.34,0,0,1-1.56.54,8.64,8.64,0,0,1-1.9.2,7.75,7.75,0,0,1-3-.56,7.46,7.46,0,0,1-3.55-3.1,6.41,6.41,0,0,1-.66-1.77,13.36,13.36,0,0,1-.27-2.32Q848.71,579.41,848.71,577.55Z"/><path class="cls-4" d="M244.86,494.26h-1.56V481.12h4.24a7,7,0,0,1,1.75.2,4.4,4.4,0,0,1,1.39.62,2.76,2.76,0,0,1,.94,1.11,3.69,3.69,0,0,1,.33,1.62,6,6,0,0,1-.14,1.37,3.53,3.53,0,0,1-.48,1.13,2.86,2.86,0,0,1-.9.87,4.56,4.56,0,0,1-1.42.54,9,9,0,0,1-2,.2q-0.91,0-2.14-.11v5.61Zm2.29-6.84a5.69,5.69,0,0,0,1.48-.17,2.85,2.85,0,0,0,.95-0.41,1.71,1.71,0,0,0,.52-0.64,2.46,2.46,0,0,0,.23-0.73,6.12,6.12,0,0,0,0-.79,1.87,1.87,0,0,0-.75-1.64,3.5,3.5,0,0,0-2-.53h-2.72v4.9Z"/><path class="cls-4" d="M257.79,484.53a4.52,4.52,0,0,1,.72.05l-0.05,1.35a4.18,4.18,0,0,0-.7-0.07,2.56,2.56,0,0,0-2,.86,3.06,3.06,0,0,0-.77,2.12v5.41h-1.47q0-8.88,0-9.64h1.22l0.14,1.73a4.09,4.09,0,0,1,1.27-1.32A3,3,0,0,1,257.79,484.53Z"/><path class="cls-4" d="M263.93,494.47a4.24,4.24,0,0,1-3.31-1.34,5.25,5.25,0,0,1-1.21-3.66,5.46,5.46,0,0,1,1.17-3.63,3.9,3.9,0,0,1,3.08-1.42,3.55,3.55,0,0,1,2.84,1.23,4.86,4.86,0,0,1,1,3.27c0,0.07,0,.2,0,0.39s0,0.32,0,.4h-6.62a3.8,3.8,0,0,0,.85,2.56,2.82,2.82,0,0,0,2.21.92,6.54,6.54,0,0,0,3.07-.81l0.23,1.19A6.29,6.29,0,0,1,263.93,494.47Zm1.48-8.06a2.19,2.19,0,0,0-1.77-.77,2.35,2.35,0,0,0-1.84.79,3.66,3.66,0,0,0-.83,2.18h5.09A3.34,3.34,0,0,0,265.41,486.4Z"/><path class="cls-4" d="M272.06,494.26l-3.74-9.64h1.57l2.13,5.73,0.88,2.44q0.3-.94.83-2.43,0.67-1.87,2.07-5.75h1.56l-3.71,9.64h-1.6Z"/><path class="cls-4" d="M280.38,481.12v1.74H278.9v-1.74h1.48Zm0,3.51v9.64H278.9v-9.64h1.48Z"/><path class="cls-4" d="M291.62,489.44a5.38,5.38,0,0,1-1.2,3.63,4.12,4.12,0,0,1-3.3,1.39,4,4,0,0,1-3.23-1.41,6.07,6.07,0,0,1,0-7.25,4.15,4.15,0,0,1,3.3-1.39,4,4,0,0,1,3.24,1.39A5.43,5.43,0,0,1,291.62,489.44Zm-7.41,0a4.52,4.52,0,0,0,.76,2.75,2.58,2.58,0,0,0,2.22,1,2.5,2.5,0,0,0,2.18-1,5.64,5.64,0,0,0,0-5.55,2.88,2.88,0,0,0-4.41,0A4.62,4.62,0,0,0,284.21,489.47Z"/><path class="cls-4" d="M293.36,491v-6.42h1.48v6.44a2.81,2.81,0,0,0,.18,1.07,1.51,1.51,0,0,0,.52.68,2.21,2.21,0,0,0,.77.35,4.09,4.09,0,0,0,1,.11,2.82,2.82,0,0,0,1.78-.5,2,2,0,0,0,.64-1.71v-6.44h1.48V491a3.92,3.92,0,0,1-.21,1.33,2.88,2.88,0,0,1-.57,1,3,3,0,0,1-.86.65,4.18,4.18,0,0,1-1.06.37,6.34,6.34,0,0,1-2.4,0A4.11,4.11,0,0,1,295,494a3.12,3.12,0,0,1-.87-0.65,2.8,2.8,0,0,1-.58-1A3.89,3.89,0,0,1,293.36,491Z"/><path class="cls-4" d="M306.24,494.47a7.35,7.35,0,0,1-1.81-.21,4.57,4.57,0,0,1-1.35-.54l0.18-1.24a6.1,6.1,0,0,0,2.88.78q2.14,0,2.21-1.51a1.23,1.23,0,0,0-.46-1,6.5,6.5,0,0,0-1.79-.83l-0.73-.25a4,4,0,0,1-1.81-1,2.43,2.43,0,0,1,.36-3.44,3.82,3.82,0,0,1,2.49-.75,6.91,6.91,0,0,1,3,.63L309,486.18a6.7,6.7,0,0,0-2.55-.56A2.49,2.49,0,0,0,305,486a1.17,1.17,0,0,0-.52,1,1,1,0,0,0,.38.86,5.68,5.68,0,0,0,1.51.69l0.73,0.25a4.92,4.92,0,0,1,2.07,1.12,2.44,2.44,0,0,1,.61,1.74,2.52,2.52,0,0,1-1,2.07A4,4,0,0,1,306.24,494.47Z"/><path class="cls-4" d="M316.26,492.12a9.7,9.7,0,0,0,4.35,1q2.86,0,2.86-2.6a2,2,0,0,0-.45-1.37,3.19,3.19,0,0,0-1.65-.82l-2.58-.65q-3-.75-3-3.16a3.15,3.15,0,0,1,1.27-2.75,6,6,0,0,1,3.52-.9,9.15,9.15,0,0,1,2.21.25,6,6,0,0,1,1.72.69L324.11,483a6.92,6.92,0,0,0-1.56-.58,7.72,7.72,0,0,0-2-.25q-3.18,0-3.18,2.21a1.56,1.56,0,0,0,.49,1.2,3.26,3.26,0,0,0,1.46.69l2.47,0.6a4.87,4.87,0,0,1,2.4,1.21,3.22,3.22,0,0,1,.82,2.36,3.66,3.66,0,0,1-1.22,3,5,5,0,0,1-3.31,1,10.94,10.94,0,0,1-2.78-.32,7.19,7.19,0,0,1-1.93-.76Z"/><path class="cls-4" d="M328.75,481.12v1.74h-1.48v-1.74h1.48Zm0,3.51v9.64h-1.48v-9.64h1.48Z"/><path class="cls-4" d="M336,484.42a3.77,3.77,0,0,1,2.21.65,4,4,0,0,1,1.4,1.77,6.59,6.59,0,0,1,.47,2.56,6.92,6.92,0,0,1-.46,2.63,3.92,3.92,0,0,1-1.4,1.79,3.8,3.8,0,0,1-2.24.66,3.72,3.72,0,0,1-1.75-.41,3.82,3.82,0,0,1-1.32-1.12l-0.15,1.34h-1.26V480.88l1.47-.09V484q0,1.18,0,2A3.75,3.75,0,0,1,336,484.42Zm-0.15,1.22a2.54,2.54,0,0,0-2.14,1,4.57,4.57,0,0,0-.74,2.83q0,3.81,2.87,3.81a2.57,2.57,0,0,0,1.25-.29,2.17,2.17,0,0,0,.85-0.83,4.25,4.25,0,0,0,.47-1.2,6.69,6.69,0,0,0,.15-1.49,6.51,6.51,0,0,0-.26-1.93,2.8,2.8,0,0,0-.88-1.34A2.38,2.38,0,0,0,335.89,485.64Z"/><path class="cls-4" d="M344.78,494.44a2.37,2.37,0,0,1-2-.76,4.42,4.42,0,0,1-.58-2.63V480.88l1.46-.09v9.69c0,0.4,0,.72,0,1a6.42,6.42,0,0,0,.07.71,1.83,1.83,0,0,0,.14.52,1,1,0,0,0,.25.32,0.85,0.85,0,0,0,.4.19,2.82,2.82,0,0,0,.58,0,10.89,10.89,0,0,0,1.11-.11l0.08,1.17A9.62,9.62,0,0,1,344.78,494.44Z"/><path class="cls-4" d="M348.92,481.12v1.74h-1.48v-1.74h1.48Zm0,3.51v9.64h-1.48v-9.64h1.48Z"/><path class="cls-4" d="M351.68,494.26v-9.64h1.23l0.18,1.38a4.29,4.29,0,0,1,1.43-1.15,4,4,0,0,1,1.85-.44,3.08,3.08,0,0,1,2.47.94,4.36,4.36,0,0,1,.8,2.88v6h-1.47q0-5.8,0-6.21a3,3,0,0,0-.5-1.8,1.87,1.87,0,0,0-1.54-.57,3.15,3.15,0,0,0-1.89.54,2.48,2.48,0,0,0-1,1.42,9.26,9.26,0,0,0-.09,1.35v5.27h-1.49Z"/><path class="cls-4" d="M363.57,498.68l-0.13-1.33h1.79a7,7,0,0,0,1.3-.11,2.56,2.56,0,0,0,.92-0.35,2.46,2.46,0,0,0,.6-0.54,2.07,2.07,0,0,0,.35-0.76,6.11,6.11,0,0,0,.16-0.93c0-.31,0-0.68,0-1.13v-0.85a3.91,3.91,0,0,1-1.22,1.16,3.43,3.43,0,0,1-1.77.41,4,4,0,0,1-1.53-.29,3.56,3.56,0,0,1-1.18-.76,4.64,4.64,0,0,1-.82-1.1,5,5,0,0,1-.49-1.29,5.92,5.92,0,0,1-.15-1.34,7,7,0,0,1,.26-2,5.1,5.1,0,0,1,.77-1.6,3.49,3.49,0,0,1,1.34-1.1,4.33,4.33,0,0,1,1.9-.4,3.57,3.57,0,0,1,1.66.37,3.73,3.73,0,0,1,1.27,1.12v-1.28h1.43v8.95c0,0.41,0,.77,0,1.08a7.54,7.54,0,0,1-.15,1,4.06,4.06,0,0,1-.32,1,3.74,3.74,0,0,1-.57.81,2.86,2.86,0,0,1-.87.66,5.39,5.39,0,0,1-1.25.41,8.18,8.18,0,0,1-1.69.16h-1.63Zm2.26-5.67a3.06,3.06,0,0,0,1.31-.26A2.12,2.12,0,0,0,368,492a3.43,3.43,0,0,0,.47-1,4.83,4.83,0,0,0,.15-1.25V489a5,5,0,0,0-.16-1.3,3.36,3.36,0,0,0-.49-1.06,2.25,2.25,0,0,0-.88-0.73,2.93,2.93,0,0,0-1.28-.26,2.61,2.61,0,0,0-1.1.23,2.35,2.35,0,0,0-.82.6,3.55,3.55,0,0,0-.54.87,4.43,4.43,0,0,0-.32,1,5.51,5.51,0,0,0-.1,1,4.89,4.89,0,0,0,.11,1,4.27,4.27,0,0,0,.33,1,3.4,3.4,0,0,0,.55.83,2.42,2.42,0,0,0,.81.58A2.56,2.56,0,0,0,365.83,493Z"/><path class="cls-5" d="M855.25,494.26h-1.72L846.78,484l-0.44-.61q0.07,1.85.07,3.3v7.54H845v-13h1.7l6.77,10.23,0.45,0.61q-0.06-2.8-.06-3.24v-7.59h1.42v13Z"/><path class="cls-5" d="M862.11,494.47a4.24,4.24,0,0,1-3.31-1.34,5.25,5.25,0,0,1-1.21-3.66,5.46,5.46,0,0,1,1.17-3.63,3.9,3.9,0,0,1,3.08-1.42,3.55,3.55,0,0,1,2.84,1.23,4.86,4.86,0,0,1,1,3.27c0,0.07,0,.2,0,0.39s0,0.32,0,.4h-6.62a3.8,3.8,0,0,0,.85,2.56,2.82,2.82,0,0,0,2.21.92,6.54,6.54,0,0,0,3.07-.81l0.23,1.19A6.29,6.29,0,0,1,862.11,494.47Zm1.48-8.06a2.19,2.19,0,0,0-1.77-.77,2.35,2.35,0,0,0-1.84.79,3.66,3.66,0,0,0-.83,2.18h5.09A3.34,3.34,0,0,0,863.6,486.4Z"/><path class="cls-5" d="M870.32,489.36l-3.4-4.74h1.68l2.58,3.67,2.58-3.67h1.68L872,489.38l3.5,4.89H873.9l-2.72-3.88-2.72,3.88h-1.68Z"/><path class="cls-5" d="M880.14,494.44a2.55,2.55,0,0,1-2-.69,3.54,3.54,0,0,1-.63-2.24v-5.79h-1.43l0.06-1,1.36-.12,0.5-2.21,1,0v2.24h2.68v1.09h-2.68v5.53a2.68,2.68,0,0,0,.33,1.55,1.33,1.33,0,0,0,1.14.45,11.49,11.49,0,0,0,1.26-.14l0.06,1.16A10,10,0,0,1,880.14,494.44Z"/><path class="cls-5" d="M887.82,492.12a9.7,9.7,0,0,0,4.35,1q2.86,0,2.86-2.6a2,2,0,0,0-.45-1.37,3.19,3.19,0,0,0-1.65-.82l-2.58-.65q-3-.75-3-3.16a3.15,3.15,0,0,1,1.27-2.75,6,6,0,0,1,3.52-.9,9.15,9.15,0,0,1,2.21.25,6,6,0,0,1,1.72.69L895.67,483a6.92,6.92,0,0,0-1.56-.58,7.72,7.72,0,0,0-2-.25q-3.18,0-3.18,2.21a1.56,1.56,0,0,0,.49,1.2,3.26,3.26,0,0,0,1.46.69l2.47,0.6a4.87,4.87,0,0,1,2.4,1.21,3.22,3.22,0,0,1,.82,2.36,3.66,3.66,0,0,1-1.22,3,5,5,0,0,1-3.31,1,10.94,10.94,0,0,1-2.78-.32,7.19,7.19,0,0,1-1.93-.76Z"/><path class="cls-5" d="M900.31,481.12v1.74h-1.48v-1.74h1.48Zm0,3.51v9.64h-1.48v-9.64h1.48Z"/><path class="cls-5" d="M907.61,484.42a3.77,3.77,0,0,1,2.21.65,4,4,0,0,1,1.4,1.77,6.59,6.59,0,0,1,.47,2.56,6.92,6.92,0,0,1-.46,2.63,3.92,3.92,0,0,1-1.4,1.79,3.8,3.8,0,0,1-2.24.66,3.72,3.72,0,0,1-1.75-.41,3.82,3.82,0,0,1-1.32-1.12l-0.15,1.34h-1.26V480.88l1.47-.09V484q0,1.18,0,2A3.75,3.75,0,0,1,907.61,484.42Zm-0.15,1.22a2.54,2.54,0,0,0-2.14,1,4.57,4.57,0,0,0-.74,2.83q0,3.81,2.87,3.81a2.57,2.57,0,0,0,1.25-.29,2.17,2.17,0,0,0,.85-0.83,4.25,4.25,0,0,0,.47-1.2,6.69,6.69,0,0,0,.15-1.49,6.51,6.51,0,0,0-.26-1.93,2.8,2.8,0,0,0-.88-1.34A2.38,2.38,0,0,0,907.46,485.64Z"/><path class="cls-5" d="M916.34,494.44a2.37,2.37,0,0,1-2-.76,4.42,4.42,0,0,1-.58-2.63V480.88l1.46-.09v9.69c0,0.4,0,.72,0,1a6.42,6.42,0,0,0,.07.71,1.83,1.83,0,0,0,.14.52,1,1,0,0,0,.25.32,0.85,0.85,0,0,0,.4.19,2.82,2.82,0,0,0,.58,0,10.89,10.89,0,0,0,1.11-.11l0.08,1.17A9.62,9.62,0,0,1,916.34,494.44Z"/><path class="cls-5" d="M920.48,481.12v1.74H919v-1.74h1.48Zm0,3.51v9.64H919v-9.64h1.48Z"/><path class="cls-5" d="M923.24,494.26v-9.64h1.23l0.18,1.38a4.29,4.29,0,0,1,1.43-1.15,4,4,0,0,1,1.85-.44,3.08,3.08,0,0,1,2.47.94,4.36,4.36,0,0,1,.8,2.88v6h-1.47q0-5.8,0-6.21a3,3,0,0,0-.5-1.8,1.87,1.87,0,0,0-1.54-.57,3.15,3.15,0,0,0-1.89.54,2.48,2.48,0,0,0-1,1.42,9.26,9.26,0,0,0-.09,1.35v5.27h-1.49Z"/><path class="cls-5" d="M935.13,498.68L935,497.35h1.79a7,7,0,0,0,1.3-.11,2.56,2.56,0,0,0,.92-0.35,2.46,2.46,0,0,0,.6-0.54,2.07,2.07,0,0,0,.35-0.76,6.11,6.11,0,0,0,.16-0.93c0-.31,0-0.68,0-1.13v-0.85a3.91,3.91,0,0,1-1.22,1.16,3.43,3.43,0,0,1-1.77.41,4,4,0,0,1-1.53-.29,3.56,3.56,0,0,1-1.18-.76,4.64,4.64,0,0,1-.82-1.1,5,5,0,0,1-.49-1.29,5.92,5.92,0,0,1-.15-1.34,7,7,0,0,1,.26-2,5.1,5.1,0,0,1,.77-1.6,3.49,3.49,0,0,1,1.34-1.1,4.33,4.33,0,0,1,1.9-.4,3.57,3.57,0,0,1,1.66.37,3.73,3.73,0,0,1,1.27,1.12v-1.28h1.43v8.95c0,0.41,0,.77,0,1.08a7.54,7.54,0,0,1-.15,1,4.06,4.06,0,0,1-.32,1,3.74,3.74,0,0,1-.57.81,2.86,2.86,0,0,1-.87.66,5.39,5.39,0,0,1-1.25.41,8.18,8.18,0,0,1-1.69.16h-1.63Zm2.26-5.67a3.06,3.06,0,0,0,1.31-.26,2.12,2.12,0,0,0,.88-0.73,3.43,3.43,0,0,0,.47-1,4.83,4.83,0,0,0,.15-1.25V489a5,5,0,0,0-.16-1.3,3.36,3.36,0,0,0-.49-1.06,2.25,2.25,0,0,0-.88-0.73,2.93,2.93,0,0,0-1.28-.26,2.61,2.61,0,0,0-1.1.23,2.35,2.35,0,0,0-.82.6,3.55,3.55,0,0,0-.54.87,4.43,4.43,0,0,0-.32,1,5.51,5.51,0,0,0-.1,1,4.89,4.89,0,0,0,.11,1,4.27,4.27,0,0,0,.33,1,3.4,3.4,0,0,0,.55.83,2.42,2.42,0,0,0,.81.58A2.56,2.56,0,0,0,937.39,493Z"/><path class="cls-8" d="M528,715.47q0-1.86.05-3.18a13.34,13.34,0,0,1,.27-2.32,6.34,6.34,0,0,1,.66-1.77,7.46,7.46,0,0,1,3.55-3.1,7.75,7.75,0,0,1,3-.56,8.57,8.57,0,0,1,1.9.2,7.3,7.3,0,0,1,1.56.54,6.28,6.28,0,0,1,1.28.82,7.39,7.39,0,0,1,1,1,7,7,0,0,1,.6.85,6.26,6.26,0,0,1,.43.86,6,6,0,0,1,.26.79,2.7,2.7,0,0,1,.09.63,1.14,1.14,0,0,1-.3.85,1,1,0,0,1-.77.3,1,1,0,0,1-.71-0.24,1.45,1.45,0,0,1-.31-0.42,4.2,4.2,0,0,1-.23-0.55,5.35,5.35,0,0,0-1.8-2.66,4.85,4.85,0,0,0-3-.94,4.93,4.93,0,0,0-3.69,1.54,4.61,4.61,0,0,0-.81,1.13,5.17,5.17,0,0,0-.45,1.44,14.65,14.65,0,0,0-.2,2q0,1.16,0,2.79t0,2.79a14.65,14.65,0,0,0,.2,2,5.17,5.17,0,0,0,.45,1.44,4.61,4.61,0,0,0,.81,1.13,4.94,4.94,0,0,0,3.69,1.54,4.85,4.85,0,0,0,3-.94,5.35,5.35,0,0,0,1.8-2.66,4.24,4.24,0,0,1,.23-0.55,1.45,1.45,0,0,1,.31-0.42,1,1,0,0,1,.71-0.24,1,1,0,0,1,.77.3,1.15,1.15,0,0,1,.3.85,2.7,2.7,0,0,1-.09.63,6.28,6.28,0,0,1-.26.79,5.71,5.71,0,0,1-.43.86,7.41,7.41,0,0,1-1.62,1.88,6.28,6.28,0,0,1-1.28.82,7.35,7.35,0,0,1-1.56.54,8.63,8.63,0,0,1-1.9.2,7.75,7.75,0,0,1-3-.56,7.46,7.46,0,0,1-3.55-3.1,6.35,6.35,0,0,1-.66-1.77,13.35,13.35,0,0,1-.27-2.32Q528,717.32,528,715.47Z"/><path class="cls-8" d="M549.88,724.86a3.62,3.62,0,0,1,0,.6,1.32,1.32,0,0,1-.16.42,0.87,0.87,0,0,1-.36.34,1.21,1.21,0,0,1-1.09,0,0.87,0.87,0,0,1-.36-0.34,1.27,1.27,0,0,1-.16-0.42,3.49,3.49,0,0,1,0-.6V706.07a3.49,3.49,0,0,1,0-.6,1.27,1.27,0,0,1,.16-0.42,0.87,0.87,0,0,1,.36-0.34,1.21,1.21,0,0,1,1.09,0,0.87,0.87,0,0,1,.36.34,1.32,1.32,0,0,1,.16.42,3.62,3.62,0,0,1,0,.6V713a5.36,5.36,0,0,1,4.17-1.81,6.31,6.31,0,0,1,2.27.39,4.55,4.55,0,0,1,1.69,1.1,4.78,4.78,0,0,1,1.05,1.74,6.76,6.76,0,0,1,.36,2.27v8.19a3.51,3.51,0,0,1,0,.6,1.34,1.34,0,0,1-.16.42,0.88,0.88,0,0,1-.36.34,1.21,1.21,0,0,1-1.09,0,0.87,0.87,0,0,1-.36-0.34,1.32,1.32,0,0,1-.16-0.42,3.6,3.6,0,0,1,0-.6V717a4,4,0,0,0-1-2.93,3.59,3.59,0,0,0-2.66-1,4.6,4.6,0,0,0-1.53.24,3.07,3.07,0,0,0-1.17.73,3.24,3.24,0,0,0-.75,1.22,5,5,0,0,0-.26,1.71v7.82Z"/><path class="cls-8" d="M564.41,705.78a1.47,1.47,0,1,1,.43,1.06A1.44,1.44,0,0,1,564.41,705.78Zm2.6,19.08a3.51,3.51,0,0,1,0,.6,1.34,1.34,0,0,1-.16.42,0.88,0.88,0,0,1-.36.34,1.21,1.21,0,0,1-1.09,0,0.87,0.87,0,0,1-.36-0.34,1.29,1.29,0,0,1-.16-0.42,3.47,3.47,0,0,1,0-.6V712.72a3.47,3.47,0,0,1,0-.6,1.29,1.29,0,0,1,.16-0.42,0.87,0.87,0,0,1,.36-0.34,1.21,1.21,0,0,1,1.09,0,0.88,0.88,0,0,1,.36.34,1.34,1.34,0,0,1,.16.42,3.51,3.51,0,0,1,0,.6v12.14Z"/><path class="cls-8" d="M574.68,722.16a2.4,2.4,0,0,0,.48,1.59,1.83,1.83,0,0,0,1.49.57,3.21,3.21,0,0,1,.6,0,1.18,1.18,0,0,1,.38.14,0.93,0.93,0,0,1,0,1.54,1.18,1.18,0,0,1-.38.14,3.22,3.22,0,0,1-.6,0h-0.39a4.08,4.08,0,0,1-1.65-.31,3.32,3.32,0,0,1-1.18-.85,3.56,3.56,0,0,1-.71-1.27,5,5,0,0,1-.23-1.56V706.07a3.6,3.6,0,0,1,0-.6,1.3,1.3,0,0,1,.16-0.42,0.87,0.87,0,0,1,.36-0.34,1.21,1.21,0,0,1,1.09,0,0.88,0.88,0,0,1,.36.34,1.34,1.34,0,0,1,.16.42,3.51,3.51,0,0,1,0,.6v16.08Z"/><path class="cls-8" d="M580.36,718.79q0-.89.08-1.78a10.65,10.65,0,0,1,.28-1.71,7.55,7.55,0,0,1,.56-1.53,4.86,4.86,0,0,1,.93-1.29,4.25,4.25,0,0,1,1.53-.94,5.89,5.89,0,0,1,2.1-.36,8,8,0,0,1,1.16.08,4.74,4.74,0,0,1,1.08.29,4.35,4.35,0,0,1,1,.58,5.81,5.81,0,0,1,1,.94v-7a3.49,3.49,0,0,1,0-.6,1.29,1.29,0,0,1,.16-0.42,0.88,0.88,0,0,1,.36-0.34,1.21,1.21,0,0,1,1.09,0,0.88,0.88,0,0,1,.36.34,1.32,1.32,0,0,1,.16.42,3.62,3.62,0,0,1,0,.6v18.79a3.62,3.62,0,0,1,0,.6,1.32,1.32,0,0,1-.16.42,0.88,0.88,0,0,1-.36.34,1.21,1.21,0,0,1-1.09,0,0.88,0.88,0,0,1-.36-0.34,1.29,1.29,0,0,1-.16-0.42,3.49,3.49,0,0,1,0-.6v-0.42a6,6,0,0,1-.94,1,4.48,4.48,0,0,1-1,.6,4.28,4.28,0,0,1-1.08.31,8.1,8.1,0,0,1-1.18.08,5.89,5.89,0,0,1-2.1-.36,4.25,4.25,0,0,1-1.53-.94,4.6,4.6,0,0,1-.93-1.28,7.73,7.73,0,0,1-.56-1.54,10.62,10.62,0,0,1-.28-1.71Q580.36,719.68,580.36,718.79Zm2.21,0a16.78,16.78,0,0,0,.13,2.11,5.55,5.55,0,0,0,.52,1.81,3.16,3.16,0,0,0,1.13,1.26,4.26,4.26,0,0,0,3.91,0,3.17,3.17,0,0,0,1.13-1.26,5.55,5.55,0,0,0,.52-1.81,17.28,17.28,0,0,0,0-4.21,5.56,5.56,0,0,0-.52-1.8,3.17,3.17,0,0,0-1.12-1.26,4.26,4.26,0,0,0-3.91,0,3.16,3.16,0,0,0-1.13,1.26,5.56,5.56,0,0,0-.52,1.8A16.8,16.8,0,0,0,582.56,718.79Z"/><path class="cls-8" d="M621.51,724.81a1.59,1.59,0,0,1-.36,1.16,1.2,1.2,0,0,1-.88.36,1.1,1.1,0,0,1-.72-0.24,3.32,3.32,0,0,1-.6-0.68l-11-16.31v15.66a4.29,4.29,0,0,1,0,.67,1.18,1.18,0,0,1-.17.42,1,1,0,0,1-.39.35,1.25,1.25,0,0,1-1.13,0,1,1,0,0,1-.39-0.35,1.14,1.14,0,0,1-.17-0.42,4.14,4.14,0,0,1,0-.67V706.12A1.59,1.59,0,0,1,606,705a1.13,1.13,0,0,1,.88-0.36,1.09,1.09,0,0,1,.72.24,3.29,3.29,0,0,1,.6.68l11,16.31V706.16a4.18,4.18,0,0,1,0-.67,1.17,1.17,0,0,1,.17-0.42,1,1,0,0,1,.38-0.35,1.25,1.25,0,0,1,1.13,0,1,1,0,0,1,.38.35,1.15,1.15,0,0,1,.17.42,4.15,4.15,0,0,1,0,.67v18.65Z"/><path class="cls-8" d="M632.66,711.18a6.1,6.1,0,0,1,2.44.46,5.87,5.87,0,0,1,1.83,1.23,5.64,5.64,0,0,1,.94,1.27,6.55,6.55,0,0,1,.56,1.43,9.17,9.17,0,0,1,.26,1.56q0.07,0.81.07,1.67t-0.07,1.67a9.19,9.19,0,0,1-.26,1.56,6.54,6.54,0,0,1-.56,1.43,5.61,5.61,0,0,1-.94,1.27,5.85,5.85,0,0,1-1.83,1.23,6.69,6.69,0,0,1-4.88,0,5.86,5.86,0,0,1-1.83-1.23,5.59,5.59,0,0,1-.94-1.27,6.59,6.59,0,0,1-.56-1.43,9.09,9.09,0,0,1-.26-1.56q-0.07-.81-0.07-1.67t0.07-1.67a9.08,9.08,0,0,1,.26-1.56,6.6,6.6,0,0,1,.56-1.43,5.61,5.61,0,0,1,.94-1.27,5.88,5.88,0,0,1,1.83-1.23A6.11,6.11,0,0,1,632.66,711.18Zm0,13.26a3.65,3.65,0,0,0,2.69-1.07,3,3,0,0,0,.63-0.91,5.65,5.65,0,0,0,.36-1.12,8.81,8.81,0,0,0,.17-1.25q0-.65,0-1.3t0-1.29a8.81,8.81,0,0,0-.17-1.24,5.67,5.67,0,0,0-.36-1.12,3,3,0,0,0-.63-0.91,3.7,3.7,0,0,0-1.2-.82,4.21,4.21,0,0,0-3,0,3.67,3.67,0,0,0-1.2.82,3,3,0,0,0-.63.91,5.61,5.61,0,0,0-.36,1.12,9,9,0,0,0-.17,1.24q0,0.64,0,1.29t0,1.3a9,9,0,0,0,.17,1.25,5.59,5.59,0,0,0,.36,1.12,3,3,0,0,0,.63.91A3.64,3.64,0,0,0,632.66,724.44Z"/><path class="cls-8" d="M642.63,718.79q0-.89.08-1.78a10.76,10.76,0,0,1,.28-1.71,7.55,7.55,0,0,1,.56-1.53,4.86,4.86,0,0,1,.93-1.29,4.25,4.25,0,0,1,1.53-.94,5.9,5.9,0,0,1,2.1-.36,8,8,0,0,1,1.16.08,4.74,4.74,0,0,1,1.08.29,4.38,4.38,0,0,1,1,.58,5.85,5.85,0,0,1,1,.94v-7a3.51,3.51,0,0,1,0-.6,1.34,1.34,0,0,1,.16-0.42,0.88,0.88,0,0,1,.36-0.34,1.13,1.13,0,0,1,.54-0.13,1.15,1.15,0,0,1,.54.13,0.87,0.87,0,0,1,.36.34,1.32,1.32,0,0,1,.16.42,3.6,3.6,0,0,1,0,.6v18.79a3.6,3.6,0,0,1,0,.6,1.32,1.32,0,0,1-.16.42,0.87,0.87,0,0,1-.36.34,1.15,1.15,0,0,1-.54.13,1.13,1.13,0,0,1-.54-0.13,0.88,0.88,0,0,1-.36-0.34,1.34,1.34,0,0,1-.16-0.42,3.51,3.51,0,0,1,0-.6v-0.42a6,6,0,0,1-.94,1,4.43,4.43,0,0,1-1,.6,4.27,4.27,0,0,1-1.08.31,8.1,8.1,0,0,1-1.18.08A5.9,5.9,0,0,1,646,726a4.25,4.25,0,0,1-1.53-.94,4.6,4.6,0,0,1-.93-1.28,7.74,7.74,0,0,1-.56-1.54,10.73,10.73,0,0,1-.28-1.71Q642.63,719.68,642.63,718.79Zm2.21,0a17,17,0,0,0,.13,2.11,5.55,5.55,0,0,0,.52,1.81,3.16,3.16,0,0,0,1.13,1.26,4.26,4.26,0,0,0,3.91,0,3.17,3.17,0,0,0,1.13-1.26,5.58,5.58,0,0,0,.52-1.81,17.28,17.28,0,0,0,0-4.21,5.58,5.58,0,0,0-.52-1.8,3.17,3.17,0,0,0-1.12-1.26,4.26,4.26,0,0,0-3.91,0,3.16,3.16,0,0,0-1.13,1.26,5.56,5.56,0,0,0-.52,1.8A17,17,0,0,0,644.83,718.79Z"/><path class="cls-8" d="M661.32,719.35a5.78,5.78,0,0,0,1.13,3.8,4,4,0,0,0,3.29,1.35,5.78,5.78,0,0,0,1.68-.25,4.19,4.19,0,0,0,1.5-.82,3.32,3.32,0,0,1,.56-0.42,1,1,0,0,1,.47-0.11,0.83,0.83,0,0,1,.35.08,1,1,0,0,1,.29.21,1.19,1.19,0,0,1,.21.31,0.81,0.81,0,0,1,.08.36,0.89,0.89,0,0,1-.16.5,2.55,2.55,0,0,1-.39.46,4.81,4.81,0,0,1-.5.41l-0.49.32a6.27,6.27,0,0,1-1.62.63,8.59,8.59,0,0,1-2.08.23,7.55,7.55,0,0,1-2.68-.45,5.29,5.29,0,0,1-2.05-1.38,6.29,6.29,0,0,1-1.31-2.36,12.72,12.72,0,0,1,0-6.68,6.78,6.78,0,0,1,1.23-2.39,5.19,5.19,0,0,1,1.93-1.46,6.23,6.23,0,0,1,2.54-.5,6.3,6.3,0,0,1,2.54.49,5.3,5.3,0,0,1,1.91,1.4,6.35,6.35,0,0,1,1.21,2.17,9.2,9.2,0,0,1,.44,2.83,3.18,3.18,0,0,1,0,.51,0.87,0.87,0,0,1-.26.49,0.81,0.81,0,0,1-.46.25,3.37,3.37,0,0,1-.51,0h-8.77Zm7.88-1.66c0-.26,0-0.5,0-0.71s0-.41-0.08-0.59-0.08-.36-0.14-0.54-0.12-.37-0.2-0.57a3.48,3.48,0,0,0-1.34-1.62,4.12,4.12,0,0,0-4.28,0,3.42,3.42,0,0,0-1.33,1.62c-0.08.2-.15,0.39-0.2,0.57a5.53,5.53,0,0,0-.14.54,5.94,5.94,0,0,0-.08.59c0,0.21,0,.45,0,0.71h7.88Z"/><path class="cls-8" d="M675.4,725a2.22,2.22,0,0,1-.52-0.47,0.88,0.88,0,0,1-.2-0.56,0.93,0.93,0,0,1,.09-0.39,1.26,1.26,0,0,1,.26-0.36,0.89,0.89,0,0,1,.63-0.23,1.78,1.78,0,0,1,1,.42,5.9,5.9,0,0,0,1.75.85,7.73,7.73,0,0,0,2.17.27,5.55,5.55,0,0,0,2.93-.64,2.16,2.16,0,0,0,1-2,1.91,1.91,0,0,0-.6-1.52,3.31,3.31,0,0,0-1.88-.64l-2.45-.23a5.77,5.77,0,0,1-3.31-1.17,3.51,3.51,0,0,1-1.13-2.82,3.93,3.93,0,0,1,1.54-3.19,5.21,5.21,0,0,1,1.73-.87,7.61,7.61,0,0,1,2.2-.3,9.49,9.49,0,0,1,2.27.25,9,9,0,0,1,1.89.69,2.88,2.88,0,0,1,.47.28,1.53,1.53,0,0,1,.27.26,0.84,0.84,0,0,1,.13.27,1.17,1.17,0,0,1,0,.29,0.82,0.82,0,0,1-.07.3,1,1,0,0,1-.17.29,0.94,0.94,0,0,1-.69.32,1.09,1.09,0,0,1-.37-0.07,3.25,3.25,0,0,1-.46-0.22,6.84,6.84,0,0,0-1.56-.6,7.28,7.28,0,0,0-1.77-.2,4.1,4.1,0,0,0-2.46.63,2.11,2.11,0,0,0-.86,1.81,1.83,1.83,0,0,0,.63,1.52,3.72,3.72,0,0,0,2,.63l2.39,0.23a8.71,8.71,0,0,1,1.79.34,4.06,4.06,0,0,1,1.38.72,3.12,3.12,0,0,1,.89,1.19,4.43,4.43,0,0,1,.32,1.78,4.11,4.11,0,0,1-.44,1.92,4.05,4.05,0,0,1-1.24,1.43,5.8,5.8,0,0,1-1.92.88,9.42,9.42,0,0,1-2.46.3,10.77,10.77,0,0,1-2.95-.36A7.44,7.44,0,0,1,675.4,725Z"/></svg>